Cooperativa-Sans-Regular.ufo
<glyph name="exclam" format="2">
	<advance width="329"/>
	<unicode hex="0021"/>
	<outline>
		<contour>
			<point x="100" y="49" type="curve" smooth="yes"/>
			<point x="100" y="84"/>
			<point x="129" y="114"/>
			<point x="164" y="114" type="curve" smooth="yes"/>
			<point x="199" y="114"/>
			<point x="229" y="84"/>
			<point x="229" y="49" type="curve" smooth="yes"/>
			<point x="229" y="14"/>
			<point x="199" y="-15"/>
			<point x="164" y="-15" type="curve" smooth="yes"/>
			<point x="129" y="-15"/>
			<point x="100" y="14"/>
		</contour>
		<contour>
			<point x="210" y="414" type="line"/>
			<point x="210" y="420" type="line" smooth="yes"/>
			<point x="210" y="539"/>
			<point x="220" y="680"/>
			<point x="223" y="743" type="curve"/>
			<point x="223" y="743"/>
			<point x="195" y="749"/>
			<point x="165" y="749" type="curve" smooth="yes"/>
			<point x="135" y="749"/>
			<point x="110" y="743"/>
			<point x="110" y="743" type="curve"/>
			<point x="120" y="420" type="line"/>
			<point x="120" y="414" type="line" smooth="yes"/>
			<point x="120" y="343"/>
			<point x="126" y="262"/>
			<point x="124" y="200" type="curve"/>
			<point x="124" y="200"/>
			<point x="138" y="200"/>
			<point x="165" y="200" type="curve" smooth="yes"/>
			<point x="192" y="200"/>
			<point x="209" y="200"/>
			<point x="209" y="200" type="curve"/>
		</contour>
	</outline>
</glyph>
<glyph name="ampersand" format="2">
	<advance width="600"/>
	<unicode hex="0026"/>
	<outline>
		<contour>
			<point x="172" y="571" type="curve" smooth="yes"/>
			<point x="172" y="496"/>
			<point x="221" y="453"/>
			<point x="289" y="453" type="curve" smooth="yes"/>
			<point x="357" y="453"/>
			<point x="406" y="495"/>
			<point x="406" y="571" type="curve" smooth="yes"/>
			<point x="406" y="646"/>
			<point x="357" y="686"/>
			<point x="289" y="686" type="curve" smooth="yes"/>
			<point x="221" y="686"/>
			<point x="172" y="646"/>
		</contour>
		<contour>
			<point x="70" y="571" type="curve" smooth="yes"/>
			<point x="70" y="673.5"/>
			<point x="146" y="766"/>
			<point x="289" y="766" type="curve" smooth="yes"/>
			<point x="432" y="766"/>
			<point x="508" y="673.5"/>
			<point x="508" y="571" type="curve" smooth="yes"/>
			<point x="508" y="461"/>
			<point x="432" y="385"/>
			<point x="289" y="385" type="curve" smooth="yes"/>
			<point x="146" y="385"/>
			<point x="70" y="461"/>
		</contour>
		<contour>
			<point x="111" y="210" type="curve" smooth="yes"/>
			<point x="111" y="110"/>
			<point x="181" y="64"/>
			<point x="259" y="64" type="curve" smooth="yes"/>
			<point x="336" y="64"/>
			<point x="407" y="110"/>
			<point x="407" y="210" type="curve" smooth="yes"/>
			<point x="407" y="310"/>
			<point x="337" y="359"/>
			<point x="259" y="359" type="curve" smooth="yes"/>
			<point x="181" y="359"/>
			<point x="111" y="310"/>
		</contour>
		<contour>
			<point x="9" y="210" type="curve" smooth="yes"/>
			<point x="9" y="350"/>
			<point x="116" y="436"/>
			<point x="259" y="436" type="curve" smooth="yes"/>
			<point x="402" y="436"/>
			<point x="509" y="350"/>
			<point x="509" y="210" type="curve" smooth="yes"/>
			<point x="509" y="65"/>
			<point x="402" y="-16"/>
			<point x="259" y="-16" type="curve" smooth="yes"/>
			<point x="116" y="-16"/>
			<point x="9" y="65"/>
		</contour>
	</outline>
</glyph>
<glyph name="parenleft" format="2">
  <advance width="730"/>
  <unicode hex="0028"/>
  <outline>
    <contour>
      <point x="322.988" y="290.569" type="curve" smooth="yes"/>
      <point x="322.988" y="663"/>
      <point x="631" y="819.311"/>
      <point x="631" y="819.311" type="curve" smooth="yes"/>
      <point x="667.108" y="722.115" type="line" smooth="yes"/>
      <point x="667.108" y="722.115"/>
      <point x="425.529" y="597"/>
      <point x="425.529" y="290.569" type="curve" smooth="yes"/>
      <point x="425.529" y="-21"/>
      <point x="666" y="-138"/>
      <point x="666" y="-138" type="curve" smooth="yes"/>
      <point x="629.892" y="-235.195" type="line" smooth="yes"/>
      <point x="629.892" y="-235.195"/>
      <point x="322.988" y="-96"/>
    </contour>
  </outline>
</glyph>
<glyph name="parenright" format="2">
  <advance width="730"/>
  <unicode hex="0029"/>
  <outline>
    <contour>
      <point x="461.012" y="303.741" type="curve" smooth="yes"/>
      <point x="461.012" y="-68.6895"/>
      <point x="153" y="-225"/>
      <point x="153" y="-225" type="curve" smooth="yes"/>
      <point x="116.892" y="-127.805" type="line" smooth="yes"/>
      <point x="116.892" y="-127.805"/>
      <point x="358.471" y="-2.68945"/>
      <point x="358.471" y="303.741" type="curve" smooth="yes"/>
      <point x="358.471" y="615.311"/>
      <point x="118" y="732.311"/>
      <point x="118" y="732.311" type="curve" smooth="yes"/>
      <point x="154.108" y="829.506" type="line" smooth="yes"/>
      <point x="154.108" y="829.506"/>
      <point x="461.012" y="690.311"/>
    </contour>
  </outline>
</glyph>
<glyph name="comma" format="2">
	<advance width="184"/>
	<unicode hex="002C"/>
	<outline>
		<contour>
			<point x="49" y="-117" type="curve"/>
			<point x="62" y="-133" type="line"/>
			<point x="110" y="-85"/>
			<point x="154" y="-34"/>
			<point x="154" y="29" type="curve" smooth="yes"/>
			<point x="154" y="79"/>
			<point x="125" y="106"/>
			<point x="91" y="106" type="curve" smooth="yes"/>
			<point x="57" y="106"/>
			<point x="30" y="79"/>
			<point x="30" y="45" type="curve" smooth="yes"/>
			<point x="30" y="1"/>
			<point x="62" y="-16"/>
			<point x="90" y="-16" type="curve" smooth="yes"/>
			<point x="116" y="-16"/>
			<point x="132" y="8" type="curve"/>
			<point x="102" y="28" type="line"/>
			<point x="124" y="-44"/>
		</contour>
	</outline>
</glyph>
<glyph name="period" format="2">
  <advance width="137"/>
  <unicode hex="002E"/>
  <outline>
    <contour>
      <point x="111" y="91" type="curve"/>
      <point x="111" y="91"/>
      <point x="117" y="74"/>
      <point x="117" y="48" type="curve" smooth="yes"/>
      <point x="117" y="22"/>
      <point x="111" y="6"/>
      <point x="111" y="6" type="curve"/>
      <point x="111" y="6"/>
      <point x="94" y="0"/>
      <point x="68" y="0" type="curve" smooth="yes"/>
      <point x="42" y="0"/>
      <point x="26" y="6"/>
      <point x="26" y="6" type="curve"/>
      <point x="26" y="6"/>
      <point x="20" y="23"/>
      <point x="20" y="49" type="curve" smooth="yes"/>
      <point x="20" y="75"/>
      <point x="26" y="91"/>
      <point x="26" y="91" type="curve"/>
      <point x="26" y="91"/>
      <point x="43" y="97"/>
      <point x="69" y="97" type="curve" smooth="yes"/>
      <point x="95" y="97"/>
      <point x="111" y="91"/>
    </contour>
  </outline>
</glyph>
<glyph name="zero" format="2">
	<advance width="605"/>
	<unicode hex="0030"/>
	<outline>
		<contour>
			<point x="305" y="-16" type="curve" smooth="yes"/>
			<point x="473" y="-16"/>
			<point x="575" y="87"/>
			<point x="575" y="375" type="curve" smooth="yes"/>
			<point x="575" y="663"/>
			<point x="473" y="766"/>
			<point x="305" y="766" type="curve" smooth="yes"/>
			<point x="137" y="766"/>
			<point x="30" y="663"/>
			<point x="30" y="375" type="curve" smooth="yes"/>
			<point x="30" y="87"/>
			<point x="137" y="-16"/>
		</contour>
		<contour>
			<point x="305" y="64" type="curve" smooth="yes"/>
			<point x="212" y="64"/>
			<point x="135" y="146"/>
			<point x="135" y="375" type="curve" smooth="yes"/>
			<point x="135" y="604"/>
			<point x="212" y="686"/>
			<point x="305" y="686" type="curve" smooth="yes"/>
			<point x="398" y="686"/>
			<point x="470" y="604"/>
			<point x="470" y="375" type="curve" smooth="yes"/>
			<point x="470" y="146"/>
			<point x="398" y="64"/>
		</contour>
	</outline>
</glyph>
<glyph name="one" format="2">
  <advance width="510"/>
  <unicode hex="0031"/>
  <outline>
    <contour>
      <point x="101" y="0" type="line"/>
      <point x="101" y="0"/>
      <point x="99.25" y="16"/>
      <point x="99.25" y="68" type="curve" smooth="yes"/>
      <point x="99.25" y="91"/>
      <point x="100" y="109"/>
      <point x="100" y="109" type="curve"/>
      <point x="100" y="109"/>
      <point x="458" y="109"/>
      <point x="489" y="109" type="curve"/>
      <point x="489" y="109"/>
      <point x="489.75" y="91"/>
      <point x="489.75" y="68" type="curve" smooth="yes"/>
      <point x="489.75" y="16"/>
      <point x="489" y="0"/>
      <point x="489" y="0" type="curve"/>
    </contour>
    <contour>
      <point x="128" y="522" type="line"/>
      <point x="128" y="522"/>
      <point x="111.392" y="520.424"/>
      <point x="83" y="551" type="curve" smooth="yes"/>
      <point x="57" y="579"/>
      <point x="56" y="593"/>
      <point x="56" y="593" type="curve"/>
      <point x="239" y="750" type="line"/>
      <point x="250" y="645" type="line"/>
    </contour>
    <contour>
      <point x="242" y="0" type="line"/>
      <point x="242" y="0"/>
      <point x="249" y="136.5"/>
      <point x="249" y="335" type="curve" smooth="yes"/>
      <point x="249" y="415" type="line" smooth="yes"/>
      <point x="249" y="615.5"/>
      <point x="239" y="750"/>
      <point x="239" y="750" type="curve"/>
      <point x="359" y="750" type="line"/>
      <point x="359" y="750"/>
      <point x="349" y="615.5"/>
      <point x="349" y="415" type="curve" smooth="yes"/>
      <point x="349" y="335" type="line" smooth="yes"/>
      <point x="349" y="136.5"/>
      <point x="356" y="0"/>
      <point x="356" y="0" type="curve"/>
    </contour>
  </outline>
</glyph>
<glyph name="two" format="2">
  <advance width="518"/>
  <unicode hex="0032"/>
  <outline>
    <contour>
      <point x="229" y="770.636" type="curve" smooth="yes"/>
      <point x="343.323" y="770.636"/>
      <point x="434" y="694.725"/>
      <point x="434" y="558" type="curve" smooth="yes"/>
      <point x="434" y="372.545"/>
      <point x="186" y="93"/>
      <point x="186" y="93" type="curve"/>
      <point x="271.591" y="93"/>
      <point x="390.756" y="96.0918"/>
      <point x="429.776" y="116.546" type="curve"/>
      <point x="429.776" y="116.546"/>
      <point x="438.586" y="93.3652"/>
      <point x="438.586" y="62.001" type="curve" smooth="yes"/>
      <point x="438.586" y="17.001"/>
      <point x="426" y="0"/>
      <point x="426" y="0" type="curve"/>
      <point x="37.9766" y="0" type="line"/>
      <point x="37.9766" y="90" type="line"/>
      <point x="37.9766" y="90"/>
      <point x="318" y="370.003"/>
      <point x="318" y="550" type="curve" smooth="yes"/>
      <point x="318" y="624"/>
      <point x="285" y="678"/>
      <point x="210" y="678" type="curve" smooth="yes"/>
      <point x="129" y="678"/>
      <point x="88" y="591"/>
      <point x="88" y="591" type="curve"/>
      <point x="88" y="591"/>
      <point x="75" y="607"/>
      <point x="52" y="638" type="curve" smooth="yes"/>
      <point x="33.29" y="663.218"/>
      <point x="34" y="681"/>
      <point x="34" y="681" type="curve"/>
      <point x="34" y="681"/>
      <point x="100" y="770.636"/>
    </contour>
  </outline>
</glyph>
<glyph name="three" format="1">
  <advance width="547"/>
  <unicode hex="0033"/>
  <outline>
    <contour>
      <point x="226" y="-9" type="curve" smooth="yes"/>
      <point x="404" y="-9"/>
      <point x="497" y="102"/>
      <point x="497" y="208" type="curve" smooth="yes"/>
      <point x="497" y="398"/>
      <point x="335" y="418"/>
      <point x="335" y="418" type="curve"/>
      <point x="335" y="418"/>
      <point x="477" y="450"/>
      <point x="477" y="571" type="curve" smooth="yes"/>
      <point x="477" y="685"/>
      <point x="394" y="769"/>
      <point x="250" y="769" type="curve" smooth="yes"/>
      <point x="100" y="769"/>
      <point x="40" y="681"/>
      <point x="40" y="681" type="curve"/>
      <point x="40" y="681"/>
      <point x="40" y="667"/>
      <point x="60" y="638" type="curve" smooth="yes"/>
      <point x="79" y="611"/>
      <point x="94" y="591"/>
      <point x="94" y="591" type="curve"/>
      <point x="94" y="591"/>
      <point x="145" y="677"/>
      <point x="231" y="677" type="curve" smooth="yes"/>
      <point x="296" y="677"/>
      <point x="366" y="646"/>
      <point x="366" y="570" type="curve" smooth="yes"/>
      <point x="366" y="456"/>
      <point x="223" y="459"/>
      <point x="196" y="459" type="curve"/>
      <point x="196" y="367" type="line"/>
      <point x="196" y="367"/>
      <point x="389" y="380"/>
      <point x="389" y="225" type="curve" smooth="yes"/>
      <point x="389" y="132"/>
      <point x="310" y="84"/>
      <point x="225" y="84" type="curve" smooth="yes"/>
      <point x="139" y="84"/>
      <point x="72" y="152"/>
      <point x="72" y="152" type="curve"/>
      <point x="72" y="152"/>
      <point x="62" y="133"/>
      <point x="55" y="101" type="curve" smooth="yes"/>
      <point x="48" y="67"/>
      <point x="53" y="42"/>
      <point x="53" y="42" type="curve"/>
      <point x="53" y="42"/>
      <point x="114" y="-9"/>
    </contour>
  </outline>
</glyph>
<glyph name="four" format="2">
	<advance width="600"/>
	<unicode hex="0034"/>
	<outline>
		<contour>
			<point x="359" y="0" type="line"/>
			<point x="359" y="0"/>
			<point x="356" y="750"/>
			<point x="356" y="750" type="curve"/>
			<point x="460" y="750" type="line"/>
			<point x="460" y="750"/>
			<point x="450" y="616"/>
			<point x="450" y="415" type="curve" smooth="yes"/>
			<point x="450" y="335" type="line" smooth="yes"/>
			<point x="450" y="137"/>
			<point x="457" y="0"/>
			<point x="457" y="0" type="curve"/>
			<point x="407" y="-4" type="line"/>
		</contour>
		<contour>
			<point x="570" y="210" type="line"/>
			<point x="570" y="210"/>
			<point x="461" y="210"/>
			<point x="311" y="210" type="curve" smooth="yes"/>
			<point x="297" y="210"/>
			<point x="36" y="211"/>
			<point x="36" y="211" type="curve"/>
			<point x="36" y="272" type="line"/>
			<point x="42" y="276"/>
			<point x="60" y="300"/>
			<point x="90" y="300" type="curve" smooth="yes"/>
			<point x="133" y="300"/>
			<point x="200" y="300"/>
			<point x="347" y="300" type="curve" smooth="yes"/>
			<point x="497" y="300"/>
			<point x="570" y="306"/>
			<point x="570" y="306" type="curve"/>
		</contour>
		<contour>
			<point x="414" y="694" type="line"/>
			<point x="414" y="695"/>
			<point x="168" y="309"/>
			<point x="147" y="279" type="curve" smooth="yes"/>
			<point x="140" y="269"/>
			<point x="82" y="270"/>
			<point x="36" y="272" type="curve"/>
			<point x="36" y="273"/>
			<point x="356" y="750"/>
			<point x="356" y="750" type="curve"/>
		</contour>
	</outline>
</glyph>
<glyph name="five" format="2">
	<advance width="561"/>
	<unicode hex="0035"/>
	<outline>
		<contour>
			<point x="282" y="-15" type="curve" smooth="yes"/>
			<point x="425" y="-15"/>
			<point x="511" y="83"/>
			<point x="511" y="230" type="curve" smooth="yes"/>
			<point x="511" y="371"/>
			<point x="434" y="477"/>
			<point x="293" y="477" type="curve" smooth="yes"/>
			<point x="229" y="477"/>
			<point x="161" y="461"/>
			<point x="63" y="396" type="curve"/>
			<point x="126" y="343" type="line"/>
			<point x="163" y="374"/>
			<point x="207" y="397"/>
			<point x="264" y="397" type="curve" smooth="yes"/>
			<point x="361" y="397"/>
			<point x="416" y="338"/>
			<point x="416" y="230" type="curve" smooth="yes"/>
			<point x="416" y="131"/>
			<point x="349" y="69"/>
			<point x="265" y="69" type="curve" smooth="yes"/>
			<point x="214" y="69"/>
			<point x="140" y="95"/>
			<point x="91" y="140" type="curve"/>
			<point x="63" y="100" type="line"/>
			<point x="50" y="53" type="line"/>
			<point x="98" y="10"/>
			<point x="195" y="-15"/>
		</contour>
		<contour>
			<point x="63" y="396" type="line"/>
			<point x="63" y="396"/>
			<point x="138" y="421"/>
			<point x="162" y="434" type="curve"/>
			<point x="196" y="661" type="line"/>
			<point x="307" y="661" type="line" smooth="yes"/>
			<point x="424" y="661"/>
			<point x="483" y="652"/>
			<point x="483" y="652" type="curve"/>
			<point x="489" y="671"/>
			<point x="489" y="730"/>
			<point x="481" y="754" type="curve"/>
			<point x="481" y="754"/>
			<point x="387" y="750"/>
			<point x="346" y="750" type="curve" smooth="yes"/>
			<point x="116" y="750" type="line"/>
			<point x="116" y="742" type="line"/>
		</contour>
	</outline>
</glyph>
<glyph name="six" format="2">
	<advance width="599"/>
	<unicode hex="0036"/>
	<outline>
		<contour>
			<point x="309" y="-16" type="curve" smooth="yes"/>
			<point x="442" y="-16"/>
			<point x="549" y="85"/>
			<point x="549" y="235" type="curve" smooth="yes"/>
			<point x="549" y="406"/>
			<point x="447" y="495"/>
			<point x="313" y="495" type="curve" smooth="yes"/>
			<point x="150" y="495"/>
			<point x="109" y="333"/>
			<point x="109" y="333" type="curve"/>
			<point x="153" y="353" type="line"/>
			<point x="153" y="585"/>
			<point x="249" y="686"/>
			<point x="330" y="686" type="curve" smooth="yes"/>
			<point x="382" y="686"/>
			<point x="423" y="673"/>
			<point x="453" y="648" type="curve"/>
			<point x="475" y="657"/>
			<point x="501" y="696"/>
			<point x="503" y="721" type="curve"/>
			<point x="461" y="752"/>
			<point x="419" y="766"/>
			<point x="320" y="766" type="curve" smooth="yes"/>
			<point x="195" y="766"/>
			<point x="50" y="654"/>
			<point x="50" y="328" type="curve" smooth="yes"/>
			<point x="50" y="77"/>
			<point x="161" y="-16"/>
		</contour>
		<contour>
			<point x="303" y="64" type="curve" smooth="yes"/>
			<point x="208" y="64"/>
			<point x="155" y="124"/>
			<point x="155" y="242" type="curve" smooth="yes"/>
			<point x="155" y="362"/>
			<point x="216" y="415"/>
			<point x="308" y="415" type="curve" smooth="yes"/>
			<point x="386" y="415"/>
			<point x="444" y="368"/>
			<point x="444" y="235" type="curve" smooth="yes"/>
			<point x="444" y="115"/>
			<point x="371" y="64"/>
		</contour>
	</outline>
</glyph>
<glyph name="seven" format="2">
	<advance width="501"/>
	<unicode hex="0037"/>
	<outline>
		<contour>
			<point x="129" y="0" type="line"/>
			<point x="235" y="0" type="line"/>
			<point x="461" y="742" type="line"/>
			<point x="461" y="750" type="line"/>
			<point x="201" y="750" type="line" smooth="yes"/>
			<point x="120" y="750"/>
			<point x="46" y="754"/>
			<point x="46" y="754" type="curve"/>
			<point x="38" y="730"/>
			<point x="38" y="671"/>
			<point x="44" y="652" type="curve"/>
			<point x="114" y="666"/>
			<point x="241" y="666" type="curve" smooth="yes"/>
			<point x="368" y="666" type="line"/>
			<point x="348" y="705" type="line"/>
			<point x="354" y="681" type="line"/>
		</contour>
	</outline>
</glyph>
<glyph name="eight" format="2">
	<advance width="579"/>
	<unicode hex="0038"/>
	<outline>
		<contour>
			<point x="289" y="-15" type="curve" smooth="yes"/>
			<point x="432" y="-15"/>
			<point x="539" y="66"/>
			<point x="539" y="211" type="curve" smooth="yes"/>
			<point x="539" y="351"/>
			<point x="432" y="437"/>
			<point x="289" y="437" type="curve" smooth="yes"/>
			<point x="146" y="437"/>
			<point x="39" y="351"/>
			<point x="39" y="211" type="curve" smooth="yes"/>
			<point x="39" y="66"/>
			<point x="146" y="-15"/>
		</contour>
		<contour>
			<point x="289" y="65" type="curve" smooth="yes"/>
			<point x="211" y="65"/>
			<point x="141" y="111"/>
			<point x="141" y="211" type="curve" smooth="yes"/>
			<point x="141" y="311"/>
			<point x="211" y="360"/>
			<point x="289" y="360" type="curve" smooth="yes"/>
			<point x="367" y="360"/>
			<point x="437" y="311"/>
			<point x="437" y="211" type="curve" smooth="yes"/>
			<point x="437" y="111"/>
			<point x="366" y="65"/>
		</contour>
		<contour>
			<point x="289" y="453" type="curve" smooth="yes"/>
			<point x="221" y="453"/>
			<point x="172" y="496"/>
			<point x="172" y="571" type="curve" smooth="yes"/>
			<point x="172" y="646"/>
			<point x="221" y="686"/>
			<point x="289" y="686" type="curve" smooth="yes"/>
			<point x="357" y="686"/>
			<point x="406" y="646"/>
			<point x="406" y="571" type="curve" smooth="yes"/>
			<point x="406" y="495"/>
			<point x="357" y="453"/>
		</contour>
		<contour>
			<point x="289" y="385" type="curve" smooth="yes"/>
			<point x="432" y="385"/>
			<point x="508" y="461"/>
			<point x="508" y="571" type="curve" smooth="yes"/>
			<point x="508" y="673.5"/>
			<point x="432" y="766"/>
			<point x="289" y="766" type="curve" smooth="yes"/>
			<point x="146" y="766"/>
			<point x="70" y="673.5"/>
			<point x="70" y="571" type="curve" smooth="yes"/>
			<point x="70" y="461"/>
			<point x="146" y="385"/>
		</contour>
	</outline>
</glyph>
<glyph name="nine" format="2">
	<advance width="579"/>
	<unicode hex="0039"/>
	<outline>
		<contour>
			<point x="242" y="-16" type="curve" smooth="yes"/>
			<point x="428" y="-16"/>
			<point x="539" y="116"/>
			<point x="539" y="422" type="curve" smooth="yes"/>
			<point x="539" y="673"/>
			<point x="428" y="766"/>
			<point x="280" y="766" type="curve" smooth="yes"/>
			<point x="147" y="766"/>
			<point x="40" y="665"/>
			<point x="40" y="515" type="curve" smooth="yes"/>
			<point x="40" y="344"/>
			<point x="142" y="255"/>
			<point x="276" y="255" type="curve" smooth="yes"/>
			<point x="439" y="255"/>
			<point x="480" y="417"/>
			<point x="480" y="417" type="curve"/>
			<point x="436" y="397" type="line"/>
			<point x="436" y="185"/>
			<point x="380" y="65"/>
			<point x="234" y="65" type="curve" smooth="yes"/>
			<point x="155" y="65"/>
			<point x="96" y="123"/>
			<point x="96" y="123" type="curve"/>
			<point x="73" y="116"/>
			<point x="49" y="77"/>
			<point x="49" y="52" type="curve"/>
			<point x="49" y="52"/>
			<point x="104" y="-16"/>
		</contour>
		<contour>
			<point x="281" y="335" type="curve" smooth="yes"/>
			<point x="203" y="335"/>
			<point x="145" y="382"/>
			<point x="145" y="515" type="curve" smooth="yes"/>
			<point x="145" y="635"/>
			<point x="218" y="686"/>
			<point x="286" y="686" type="curve" smooth="yes"/>
			<point x="381" y="686"/>
			<point x="434" y="626"/>
			<point x="434" y="508" type="curve" smooth="yes"/>
			<point x="434" y="388"/>
			<point x="373" y="335"/>
		</contour>
	</outline>
</glyph>
<glyph name="colon" format="2">
  <advance width="133"/>
  <unicode hex="003A"/>
  <outline>
    <contour>
      <point x="109" y="91" type="curve"/>
      <point x="109" y="91"/>
      <point x="115" y="74"/>
      <point x="115" y="48" type="curve" smooth="yes"/>
      <point x="115" y="22"/>
      <point x="109" y="6"/>
      <point x="109" y="6" type="curve"/>
      <point x="109" y="6"/>
      <point x="92" y="0"/>
      <point x="66" y="0" type="curve" smooth="yes"/>
      <point x="40" y="0"/>
      <point x="24" y="6"/>
      <point x="24" y="6" type="curve"/>
      <point x="24" y="6"/>
      <point x="18" y="23"/>
      <point x="18" y="49" type="curve" smooth="yes"/>
      <point x="18" y="75"/>
      <point x="24" y="91"/>
      <point x="24" y="91" type="curve"/>
      <point x="24" y="91"/>
      <point x="41" y="97"/>
      <point x="67" y="97" type="curve" smooth="yes"/>
      <point x="93" y="97"/>
      <point x="109" y="91"/>
    </contour>
    <contour>
      <point x="109" y="400" type="curve"/>
      <point x="109" y="400"/>
      <point x="115" y="383"/>
      <point x="115" y="357" type="curve" smooth="yes"/>
      <point x="115" y="331"/>
      <point x="109" y="315"/>
      <point x="109" y="315" type="curve"/>
      <point x="109" y="315"/>
      <point x="92" y="309"/>
      <point x="66" y="309" type="curve" smooth="yes"/>
      <point x="40" y="309"/>
      <point x="24" y="315"/>
      <point x="24" y="315" type="curve"/>
      <point x="24" y="315"/>
      <point x="18" y="332"/>
      <point x="18" y="358" type="curve" smooth="yes"/>
      <point x="18" y="384"/>
      <point x="24" y="400"/>
      <point x="24" y="400" type="curve"/>
      <point x="24" y="400"/>
      <point x="41" y="406"/>
      <point x="67" y="406" type="curve" smooth="yes"/>
      <point x="93" y="406"/>
      <point x="109" y="400"/>
    </contour>
  </outline>
</glyph>
<glyph name="semicolon" format="2">
  <advance width="134"/>
  <unicode hex="003B"/>
  <outline>
    <contour>
      <point x="76" y="0" type="line"/>
      <point x="44" y="0"/>
      <point x="29" y="8"/>
      <point x="29" y="8" type="curve"/>
      <point x="29" y="8"/>
      <point x="21" y="23"/>
      <point x="21" y="49" type="curve" smooth="yes"/>
      <point x="21" y="75"/>
      <point x="29" y="89"/>
      <point x="29" y="89" type="curve"/>
      <point x="29" y="89"/>
      <point x="44" y="97"/>
      <point x="70" y="97" type="curve" smooth="yes"/>
      <point x="96" y="97"/>
      <point x="110" y="89"/>
      <point x="110" y="89" type="curve"/>
      <point x="110" y="89"/>
      <point x="118" y="74"/>
      <point x="118" y="48" type="curve" smooth="yes"/>
      <point x="118" y="-44"/>
      <point x="54" y="-99"/>
      <point x="54" y="-99" type="curve"/>
      <point x="35" y="-83" type="line"/>
      <point x="35" y="-83"/>
      <point x="70" y="-40"/>
      <point x="70" y="20" type="curve" smooth="yes"/>
    </contour>
    <contour>
      <point x="114" y="400" type="curve"/>
      <point x="114" y="400"/>
      <point x="120" y="383"/>
      <point x="120" y="357" type="curve" smooth="yes"/>
      <point x="120" y="331"/>
      <point x="114" y="315"/>
      <point x="114" y="315" type="curve"/>
      <point x="114" y="315"/>
      <point x="97" y="309"/>
      <point x="71" y="309" type="curve" smooth="yes"/>
      <point x="45" y="309"/>
      <point x="29" y="315"/>
      <point x="29" y="315" type="curve"/>
      <point x="29" y="315"/>
      <point x="23" y="332"/>
      <point x="23" y="358" type="curve" smooth="yes"/>
      <point x="23" y="384"/>
      <point x="29" y="400"/>
      <point x="29" y="400" type="curve"/>
      <point x="29" y="400"/>
      <point x="46" y="406"/>
      <point x="72" y="406" type="curve" smooth="yes"/>
      <point x="98" y="406"/>
      <point x="114" y="400"/>
    </contour>
  </outline>
</glyph>
<glyph name="question" format="2">
  <advance width="600"/>
  <unicode hex="003F"/>
  <outline>
    <contour>
      <point x="177.866" y="23.7998" type="curve" smooth="yes"/>
      <point x="177.866" y="64.7998"/>
      <point x="210.667" y="97.6006"/>
      <point x="251.667" y="97.6006" type="curve" smooth="yes"/>
      <point x="292.667" y="97.6006"/>
      <point x="325.467" y="64.7998"/>
      <point x="325.467" y="23.7998" type="curve" smooth="yes"/>
      <point x="325.467" y="-17.2002"/>
      <point x="292.667" y="-50"/>
      <point x="251.667" y="-50" type="curve" smooth="yes"/>
      <point x="210.667" y="-50"/>
      <point x="177.866" y="-17.2002"/>
    </contour>
    <contour>
      <point x="387.667" y="574" type="curve" smooth="yes"/>
      <point x="387.667" y="633"/>
      <point x="358.667" y="684"/>
      <point x="283.667" y="684" type="curve" smooth="yes"/>
      <point x="217.659" y="684"/>
      <point x="153" y="596"/>
      <point x="153" y="596" type="curve"/>
      <point x="153" y="596"/>
      <point x="131.936" y="613.597"/>
      <point x="117" y="636" type="curve" smooth="yes"/>
      <point x="105" y="654"/>
      <point x="99" y="676"/>
      <point x="99" y="676" type="curve"/>
      <point x="99" y="676"/>
      <point x="174.99" y="763"/>
      <point x="286.667" y="763" type="curve" smooth="yes"/>
      <point x="418.667" y="763"/>
      <point x="490.667" y="688"/>
      <point x="490.667" y="576" type="curve" smooth="yes"/>
      <point x="490.667" y="427"/>
      <point x="290.667" y="364"/>
      <point x="290.667" y="266" type="curve" smooth="yes"/>
      <point x="291" y="200" type="line"/>
      <point x="195.667" y="200" type="line"/>
      <point x="195.667" y="200"/>
      <point x="195.667" y="212.807"/>
      <point x="195.667" y="306" type="curve" smooth="yes"/>
      <point x="195.667" y="413"/>
      <point x="387.667" y="449.337"/>
    </contour>
  </outline>
</glyph>
<glyph name="B" format="2">
  <advance width="570"/>
  <unicode hex="0042"/>
  <outline>
    <contour>
      <point x="109" y="103" type="curve"/>
      <point x="63" y="0" type="line"/>
      <point x="63" y="0"/>
      <point x="116" y="-15"/>
      <point x="218" y="-15" type="curve" smooth="yes"/>
      <point x="402" y="-15"/>
      <point x="530" y="56"/>
      <point x="530" y="222" type="curve" smooth="yes"/>
      <point x="530" y="358"/>
      <point x="428" y="442"/>
      <point x="230" y="442" type="curve" smooth="yes"/>
      <point x="172" y="442"/>
      <point x="136" y="442"/>
      <point x="136" y="442" type="curve"/>
      <point x="136" y="364" type="line"/>
      <point x="136" y="364"/>
      <point x="167" y="364"/>
      <point x="216" y="364" type="curve" smooth="yes"/>
      <point x="346" y="364"/>
      <point x="415" y="324"/>
      <point x="415" y="222" type="curve" smooth="yes"/>
      <point x="415" y="116"/>
      <point x="338" y="78"/>
      <point x="228" y="78" type="curve" smooth="yes"/>
      <point x="167" y="78"/>
      <point x="109" y="103"/>
    </contour>
    <contour>
      <point x="132" y="470" type="curve"/>
      <point x="96" y="408" type="line"/>
      <point x="96" y="408"/>
      <point x="136" y="364"/>
      <point x="208" y="364" type="curve" smooth="yes"/>
      <point x="281" y="364"/>
      <point x="479" y="375"/>
      <point x="479" y="556" type="curve" smooth="yes"/>
      <point x="479" y="687"/>
      <point x="381" y="767"/>
      <point x="217" y="767" type="curve" smooth="yes"/>
      <point x="110" y="767"/>
      <point x="60" y="750"/>
      <point x="60" y="750" type="curve"/>
      <point x="126" y="672" type="line"/>
      <point x="126" y="672"/>
      <point x="156" y="672"/>
      <point x="212" y="672" type="curve" smooth="yes"/>
      <point x="327" y="672"/>
      <point x="364" y="628"/>
      <point x="364" y="556" type="curve" smooth="yes"/>
      <point x="364" y="488"/>
      <point x="314" y="442"/>
      <point x="230" y="442" type="curve" smooth="yes"/>
      <point x="154" y="442"/>
      <point x="132" y="470"/>
    </contour>
    <contour>
      <point x="63" y="0" type="curve"/>
      <point x="172" y="0" type="line"/>
      <point x="172" y="0"/>
      <point x="165" y="136.5"/>
      <point x="165" y="335" type="curve" smooth="yes"/>
      <point x="165" y="415" type="line" smooth="yes"/>
      <point x="165" y="615.5"/>
      <point x="175" y="750"/>
      <point x="175" y="750" type="curve"/>
      <point x="60" y="750" type="line"/>
      <point x="60" y="750"/>
      <point x="70" y="615.5"/>
      <point x="70" y="415" type="curve" smooth="yes"/>
      <point x="70" y="335" type="line" smooth="yes"/>
      <point x="70" y="136.5"/>
      <point x="63" y="0"/>
    </contour>
  </outline>
</glyph>
<glyph name="C" format="2">
	<advance width="613"/>
	<unicode hex="0043"/>
	<anchor x="307" y="750" name="top"/>
	<anchor x="307" y="0" name="bottom"/>
	<outline>
		<contour>
			<point x="366" y="-15" type="curve" smooth="yes"/>
			<point x="524" y="-15"/>
			<point x="573" y="43"/>
			<point x="573" y="43" type="curve"/>
			<point x="573" y="108"/>
			<point x="544" y="129"/>
			<point x="544" y="129" type="curve"/>
			<point x="544" y="129"/>
			<point x="485" y="78"/>
			<point x="362" y="78" type="curve" smooth="yes"/>
			<point x="264" y="78"/>
			<point x="175" y="155"/>
			<point x="175" y="375" type="curve" smooth="yes"/>
			<point x="175" y="595"/>
			<point x="278" y="683"/>
			<point x="398" y="683" type="curve" smooth="yes"/>
			<point x="495" y="683"/>
			<point x="543" y="639"/>
			<point x="543" y="639" type="curve"/>
			<point x="543" y="639"/>
			<point x="556" y="665"/>
			<point x="556" y="701" type="curve" smooth="yes"/>
			<point x="556" y="725"/>
			<point x="550" y="735"/>
			<point x="550" y="735" type="curve"/>
			<point x="550" y="735"/>
			<point x="491" y="766"/>
			<point x="398" y="766" type="curve" smooth="yes"/>
			<point x="281" y="766"/>
			<point x="60" y="713"/>
			<point x="60" y="375" type="curve" smooth="yes"/>
			<point x="60" y="37"/>
			<point x="253" y="-15"/>
		</contour>
	</outline>
</glyph>
<glyph name="D" format="2">
	<advance width="666"/>
	<unicode hex="0044"/>
	<anchor x="333" y="750" name="top"/>
	<anchor x="333" y="0" name="bottom"/>
	<anchor x="333" y="375" name="center"/>
	<outline>
		<contour>
			<point x="231" y="-16" type="curve" smooth="yes"/>
			<point x="408" y="-16"/>
			<point x="601" y="68"/>
			<point x="601" y="375" type="curve" smooth="yes"/>
			<point x="601" y="682"/>
			<point x="408" y="766"/>
			<point x="231" y="766" type="curve" smooth="yes"/>
			<point x="127" y="766"/>
			<point x="63" y="750"/>
			<point x="63" y="750" type="curve"/>
			<point x="115" y="639" type="line"/>
			<point x="115" y="639"/>
			<point x="160" y="664"/>
			<point x="246" y="664" type="curve" smooth="yes"/>
			<point x="387" y="664"/>
			<point x="486" y="572"/>
			<point x="486" y="375" type="curve" smooth="yes"/>
			<point x="486" y="178"/>
			<point x="387" y="86"/>
			<point x="246" y="86" type="curve" smooth="yes"/>
			<point x="160" y="86"/>
			<point x="115" y="111"/>
			<point x="115" y="111" type="curve"/>
			<point x="63" y="0" type="line"/>
			<point x="63" y="0"/>
			<point x="127" y="-16"/>
		</contour>
		<contour>
			<point x="63" y="0" type="curve"/>
			<point x="172" y="0" type="line"/>
			<point x="172" y="0"/>
			<point x="165" y="137"/>
			<point x="165" y="335" type="curve" smooth="yes"/>
			<point x="165" y="415" type="line" smooth="yes"/>
			<point x="165" y="616"/>
			<point x="175" y="750"/>
			<point x="175" y="750" type="curve"/>
			<point x="60" y="750" type="line"/>
			<point x="60" y="750"/>
			<point x="70" y="616"/>
			<point x="70" y="415" type="curve" smooth="yes"/>
			<point x="70" y="335" type="line" smooth="yes"/>
			<point x="70" y="137"/>
			<point x="63" y="0"/>
		</contour>
	</outline>
</glyph>
<glyph name="E" format="2">
	<advance width="499"/>
	<unicode hex="0045"/>
	<anchor x="250" y="750" name="top"/>
	<anchor x="250" y="0" name="bottom"/>
	<anchor x="449" y="10" name="ogonek"/>
	<anchor x="20" y="750" name="topleft"/>
	<outline>
		<contour>
			<point x="452" y="-4" type="curve"/>
			<point x="452" y="-4"/>
			<point x="456" y="16"/>
			<point x="456" y="68" type="curve" smooth="yes"/>
			<point x="456" y="91"/>
			<point x="455" y="99"/>
			<point x="455" y="99" type="curve"/>
			<point x="424" y="84"/>
			<point x="375" y="78"/>
			<point x="163" y="78" type="curve"/>
			<point x="163" y="344" type="line"/>
			<point x="308" y="342"/>
			<point x="390" y="340"/>
			<point x="410" y="338" type="curve"/>
			<point x="412" y="386" type="line" smooth="yes"/>
			<point x="412" y="401"/>
			<point x="411" y="414"/>
			<point x="410" y="426" type="curve"/>
			<point x="410" y="426"/>
			<point x="347" y="420"/>
			<point x="269" y="420" type="curve" smooth="yes"/>
			<point x="199" y="420"/>
			<point x="163" y="423"/>
			<point x="163" y="423" type="curve"/>
			<point x="162" y="476"/>
			<point x="163" y="562"/>
			<point x="165" y="675" type="curve"/>
			<point x="301" y="675"/>
			<point x="394" y="672"/>
			<point x="445" y="665" type="curve"/>
			<point x="447" y="679"/>
			<point x="448" y="694"/>
			<point x="448" y="709" type="curve" smooth="yes"/>
			<point x="448" y="725"/>
			<point x="447" y="741"/>
			<point x="445" y="758" type="curve"/>
			<point x="378" y="753"/>
			<point x="280" y="751"/>
			<point x="150" y="750.637" type="curve" smooth="yes"/>
			<point x="60" y="751" type="line"/>
			<point x="60" y="751"/>
			<point x="70" y="664"/>
			<point x="70" y="464" type="curve" smooth="yes"/>
			<point x="70" y="371" type="line" smooth="yes"/>
			<point x="70" y="196"/>
			<point x="63" y="0"/>
			<point x="63" y="0" type="curve"/>
			<point x="316" y="0" type="line" smooth="yes"/>
			<point x="398" y="0"/>
			<point x="452" y="-4"/>
		</contour>
	</outline>
</glyph>
<glyph name="F" format="2">
	<advance width="478"/>
	<unicode hex="0046"/>
	<anchor x="239" y="750" name="top"/>
	<anchor x="239" y="0" name="bottom"/>
	<outline>
		<contour>
			<point x="178" y="-1" type="line"/>
			<point x="178" y="-1"/>
			<point x="163" y="167"/>
			<point x="163" y="344" type="curve"/>
			<point x="163" y="344"/>
			<point x="370" y="340"/>
			<point x="390" y="338" type="curve"/>
			<point x="392" y="386" type="line" smooth="yes"/>
			<point x="392" y="401"/>
			<point x="391" y="414"/>
			<point x="390" y="426" type="curve"/>
			<point x="390" y="426"/>
			<point x="347" y="420"/>
			<point x="269" y="420" type="curve" smooth="yes"/>
			<point x="199" y="420"/>
			<point x="163" y="423"/>
			<point x="163" y="423" type="curve"/>
			<point x="162" y="476"/>
			<point x="163" y="562"/>
			<point x="165" y="675" type="curve"/>
			<point x="301" y="675"/>
			<point x="394" y="672"/>
			<point x="445" y="665" type="curve"/>
			<point x="447" y="679"/>
			<point x="448" y="694"/>
			<point x="448" y="709" type="curve" smooth="yes"/>
			<point x="448" y="725"/>
			<point x="447" y="741"/>
			<point x="445" y="758" type="curve"/>
			<point x="378" y="753"/>
			<point x="280" y="751"/>
			<point x="150" y="750.637" type="curve" smooth="yes"/>
			<point x="60" y="751" type="line"/>
			<point x="60" y="751"/>
			<point x="70" y="664"/>
			<point x="70" y="464" type="curve" smooth="yes"/>
			<point x="70" y="371" type="line" smooth="yes"/>
			<point x="70" y="176"/>
			<point x="63" y="0"/>
			<point x="63" y="0" type="curve"/>
		</contour>
	</outline>
</glyph>
<glyph name="G" format="2">
  <advance width="755"/>
  <unicode hex="0047"/>
  <outline>
    <contour>
      <point x="544" y="350" type="curve"/>
      <point x="544" y="350"/>
      <point x="561" y="310"/>
      <point x="561" y="275" type="curve" smooth="yes"/>
      <point x="561" y="136"/>
      <point x="460" y="78"/>
      <point x="358" y="78" type="curve" smooth="yes"/>
      <point x="259" y="78"/>
      <point x="170" y="155"/>
      <point x="170" y="375" type="curve" smooth="yes"/>
      <point x="170" y="595"/>
      <point x="263" y="683"/>
      <point x="393" y="683" type="curve" smooth="yes"/>
      <point x="518" y="683"/>
      <point x="571" y="635"/>
      <point x="571" y="635" type="curve"/>
      <point x="571" y="635"/>
      <point x="584" y="661"/>
      <point x="584" y="697" type="curve" smooth="yes"/>
      <point x="584" y="721"/>
      <point x="578" y="731"/>
      <point x="578" y="731" type="curve"/>
      <point x="578" y="731"/>
      <point x="537" y="766"/>
      <point x="393" y="766" type="curve" smooth="yes"/>
      <point x="265.667" y="766"/>
      <point x="55" y="713"/>
      <point x="55" y="375" type="curve" smooth="yes"/>
      <point x="55" y="37"/>
      <point x="248" y="-15"/>
      <point x="358" y="-15" type="curve" smooth="yes"/>
      <point x="499" y="-15"/>
      <point x="638" y="94.982"/>
      <point x="638" y="275" type="curve" smooth="yes"/>
      <point x="638" y="326"/>
      <point x="628" y="397"/>
      <point x="628" y="397" type="curve"/>
      <point x="434" y="397" type="line" smooth="yes"/>
      <point x="370" y="397"/>
      <point x="357" y="387"/>
      <point x="357" y="387" type="curve"/>
      <point x="357" y="387"/>
      <point x="351" y="377"/>
      <point x="351" y="353" type="curve" smooth="yes"/>
      <point x="351" y="317"/>
      <point x="361" y="294"/>
      <point x="361" y="294" type="curve"/>
      <point x="361" y="294"/>
      <point x="384" y="311"/>
      <point x="471" y="311" type="curve" smooth="yes"/>
      <point x="580" y="311" type="line"/>
      <point x="580" y="311"/>
      <point x="549.945" y="341.893"/>
    </contour>
  </outline>
</glyph>
<glyph name="H" format="2">
	<advance width="668"/>
	<unicode hex="0048"/>
	<anchor x="334" y="750" name="top"/>
	<anchor x="334" y="0" name="bottom"/>
	<anchor x="334" y="375" name="center"/>
	<anchor x="20" y="750" name="topleft"/>
	<outline>
		<contour>
			<point x="481" y="0" type="curve"/>
			<point x="590" y="0" type="line"/>
			<point x="590" y="0"/>
			<point x="583" y="137"/>
			<point x="583" y="335" type="curve" smooth="yes"/>
			<point x="583" y="415" type="line" smooth="yes"/>
			<point x="583" y="616"/>
			<point x="593" y="750"/>
			<point x="593" y="750" type="curve"/>
			<point x="478" y="750" type="line"/>
			<point x="478" y="750"/>
			<point x="488" y="616"/>
			<point x="488" y="415" type="curve" smooth="yes"/>
			<point x="488" y="335" type="line" smooth="yes"/>
			<point x="488" y="137"/>
			<point x="481" y="0"/>
		</contour>
		<contour>
			<point x="71" y="0" type="curve"/>
			<point x="180" y="0" type="line"/>
			<point x="180" y="0"/>
			<point x="173" y="137"/>
			<point x="173" y="335" type="curve" smooth="yes"/>
			<point x="173" y="415" type="line" smooth="yes"/>
			<point x="173" y="616"/>
			<point x="183" y="750"/>
			<point x="183" y="750" type="curve"/>
			<point x="68" y="750" type="line"/>
			<point x="68" y="750"/>
			<point x="78" y="616"/>
			<point x="78" y="415" type="curve" smooth="yes"/>
			<point x="78" y="335" type="line" smooth="yes"/>
			<point x="78" y="137"/>
			<point x="71" y="0"/>
		</contour>
		<contour>
			<point x="165" y="334" type="line"/>
			<point x="338" y="336" type="line"/>
			<point x="496" y="334" type="line"/>
			<point x="496" y="422" type="line"/>
			<point x="337" y="420" type="line"/>
			<point x="165" y="422" type="line"/>
		</contour>
	</outline>
</glyph>
<glyph name="K" format="2">
  <advance width="567"/>
  <unicode hex="004B"/>
  <outline>
    <contour>
      <point x="153" y="375" type="line"/>
      <point x="252" y="375" type="line"/>
      <point x="322.791" y="270.766"/>
      <point x="462" y="0"/>
      <point x="462" y="0" type="curve"/>
      <point x="462" y="0"/>
      <point x="489" y="0"/>
      <point x="520" y="0" type="curve" smooth="yes"/>
      <point x="555" y="0"/>
      <point x="593" y="0"/>
      <point x="593" y="0" type="curve"/>
      <point x="593" y="0"/>
      <point x="415.083" y="288.775"/>
      <point x="328" y="417" type="curve" smooth="yes"/>
      <point x="606" y="751" type="line"/>
      <point x="606" y="751"/>
      <point x="578" y="754"/>
      <point x="542" y="754" type="curve" smooth="yes"/>
      <point x="512" y="754"/>
      <point x="481" y="751"/>
      <point x="481" y="751" type="curve"/>
      <point x="442.007" y="701.829"/>
      <point x="328.009" y="555.432"/>
      <point x="249" y="466" type="curve"/>
      <point x="153" y="466" type="line"/>
    </contour>
    <contour>
      <point x="166" y="532.328" type="curve"/>
      <point x="171" y="752" type="line"/>
      <point x="171" y="752"/>
      <point x="151" y="755"/>
      <point x="121" y="755" type="curve" smooth="yes"/>
      <point x="91" y="755"/>
      <point x="71" y="752"/>
      <point x="71" y="752" type="curve"/>
      <point x="74.333" y="689.333"/>
      <point x="75" y="645.661"/>
      <point x="75" y="526.328" type="curve"/>
      <point x="75" y="286.328" type="line"/>
      <point x="75" y="160.328"/>
      <point x="70" y="0.328125"/>
      <point x="70" y="0.328125" type="curve"/>
      <point x="70" y="0.328125"/>
      <point x="93" y="0"/>
      <point x="124" y="0" type="curve" smooth="yes"/>
      <point x="159" y="0"/>
      <point x="182" y="0.328125"/>
      <point x="182" y="0.328125" type="curve"/>
      <point x="182" y="0.328125"/>
      <point x="165" y="141.328"/>
      <point x="165" y="296.328" type="curve" smooth="yes"/>
      <point x="165" y="388.328"/>
      <point x="166" y="440.328"/>
    </contour>
  </outline>
</glyph>
<glyph name="L" format="2">
	<advance width="504"/>
	<unicode hex="004C"/>
	<anchor x="252" y="750" name="top"/>
	<anchor x="252" y="0" name="bottom"/>
	<anchor x="252" y="375" name="center"/>
	<anchor x="484" y="750" name="topright"/>
	<outline>
		<contour>
			<point x="460" y="-4" type="curve"/>
			<point x="460" y="-4"/>
			<point x="464" y="16"/>
			<point x="464" y="68" type="curve" smooth="yes"/>
			<point x="464" y="91"/>
			<point x="463" y="99"/>
			<point x="463" y="99" type="curve"/>
			<point x="432" y="84"/>
			<point x="394" y="78"/>
			<point x="182" y="78" type="curve"/>
			<point x="182" y="372" type="line" smooth="yes"/>
			<point x="182" y="648"/>
			<point x="197" y="751"/>
			<point x="197" y="751" type="curve"/>
			<point x="68" y="751" type="line"/>
			<point x="68" y="751"/>
			<point x="78" y="664"/>
			<point x="78" y="464" type="curve" smooth="yes"/>
			<point x="78" y="371" type="line" smooth="yes"/>
			<point x="78" y="164"/>
			<point x="71" y="0"/>
			<point x="71" y="0" type="curve"/>
			<point x="324" y="0" type="line" smooth="yes"/>
			<point x="406" y="0"/>
			<point x="460" y="-4"/>
		</contour>
	</outline>
</glyph>
<glyph name="M" format="2">
	<advance width="819"/>
	<unicode hex="004D"/>
	<outline>
		<contour>
			<point x="390" y="0" type="line"/>
			<point x="458" y="0" type="line"/>
			<point x="612" y="375" type="line"/>
			<point x="711" y="674" type="line"/>
			<point x="759" y="750" type="line"/>
			<point x="659" y="750" type="line"/>
			<point x="376" y="50" type="line"/>
		</contour>
		<contour>
			<point x="50" y="0" type="curve"/>
			<point x="150" y="0" type="line"/>
			<point x="150" y="0"/>
			<point x="144" y="136.5"/>
			<point x="144" y="335" type="curve" smooth="yes"/>
			<point x="144" y="415" type="line" smooth="yes"/>
			<point x="144" y="615.5"/>
			<point x="144" y="750"/>
			<point x="144" y="750" type="curve"/>
			<point x="50" y="750" type="line"/>
			<point x="50" y="750"/>
			<point x="59" y="615.5"/>
			<point x="59" y="415" type="curve" smooth="yes"/>
			<point x="59" y="335" type="line" smooth="yes"/>
			<point x="59" y="136.5"/>
			<point x="50" y="0"/>
		</contour>
		<contour>
			<point x="358" y="0" type="line"/>
			<point x="426" y="0" type="line"/>
			<point x="440" y="50" type="line"/>
			<point x="157" y="750" type="line"/>
			<point x="57" y="750" type="line"/>
			<point x="105" y="674" type="line"/>
			<point x="204" y="375" type="line"/>
		</contour>
		<contour>
			<point x="669" y="0" type="curve"/>
			<point x="769" y="0" type="line"/>
			<point x="769" y="0"/>
			<point x="763" y="136.5"/>
			<point x="763" y="335" type="curve" smooth="yes"/>
			<point x="763" y="415" type="line" smooth="yes"/>
			<point x="763" y="615.5"/>
			<point x="766" y="750"/>
			<point x="766" y="750" type="curve"/>
			<point x="678" y="750" type="line"/>
			<point x="678" y="750"/>
			<point x="678" y="615.5"/>
			<point x="678" y="415" type="curve" smooth="yes"/>
			<point x="678" y="335" type="line" smooth="yes"/>
			<point x="678" y="136.5"/>
			<point x="669" y="0"/>
		</contour>
	</outline>
</glyph>
<glyph name="N" format="2">
  <advance width="610"/>
  <unicode hex="004E"/>
  <outline>
    <contour>
      <point x="448" y="0" type="curve"/>
      <point x="547" y="0" type="line"/>
      <point x="547" y="0"/>
      <point x="540" y="136.5"/>
      <point x="540" y="335" type="curve" smooth="yes"/>
      <point x="540" y="415" type="line" smooth="yes"/>
      <point x="540" y="615.5"/>
      <point x="550" y="750"/>
      <point x="550" y="750" type="curve"/>
      <point x="445" y="750" type="line"/>
      <point x="445" y="750"/>
      <point x="455" y="615.5"/>
      <point x="455" y="415" type="curve" smooth="yes"/>
      <point x="455" y="335" type="line" smooth="yes"/>
      <point x="455" y="136.5"/>
      <point x="448" y="0"/>
    </contour>
    <contour>
      <point x="63" y="0" type="curve"/>
      <point x="162" y="0" type="line"/>
      <point x="162" y="0"/>
      <point x="155" y="136.5"/>
      <point x="155" y="335" type="curve" smooth="yes"/>
      <point x="155" y="415" type="line" smooth="yes"/>
      <point x="155" y="615.5"/>
      <point x="165" y="750"/>
      <point x="165" y="750" type="curve"/>
      <point x="60" y="750" type="line"/>
      <point x="60" y="750"/>
      <point x="70" y="615.5"/>
      <point x="70" y="415" type="curve" smooth="yes"/>
      <point x="70" y="335" type="line" smooth="yes"/>
      <point x="70" y="136.5"/>
      <point x="63" y="0"/>
    </contour>
    <contour>
      <point x="433" y="0" type="line"/>
      <point x="547" y="0" type="line"/>
      <point x="194" y="750" type="line"/>
      <point x="88" y="750" type="line"/>
    </contour>
  </outline>
</glyph>
<glyph name="O" format="2">
  <advance width="725"/>
  <unicode hex="004F"/>
  <outline>
    <contour>
      <point x="175" y="375" type="curve" smooth="yes"/>
      <point x="175" y="126"/>
      <point x="272" y="67"/>
      <point x="365" y="67" type="curve" smooth="yes"/>
      <point x="458" y="67"/>
      <point x="550" y="126"/>
      <point x="550" y="375" type="curve" smooth="yes"/>
      <point x="550" y="624"/>
      <point x="458" y="683"/>
      <point x="365" y="683" type="curve" smooth="yes"/>
      <point x="272" y="683"/>
      <point x="175" y="624"/>
    </contour>
    <contour>
      <point x="60" y="375" type="curve" smooth="yes"/>
      <point x="60" y="673"/>
      <point x="207" y="766"/>
      <point x="365" y="766" type="curve" smooth="yes"/>
      <point x="523" y="766"/>
      <point x="665" y="673"/>
      <point x="665" y="375" type="curve" smooth="yes"/>
      <point x="665" y="77"/>
      <point x="523" y="-16"/>
      <point x="365" y="-16" type="curve" smooth="yes"/>
      <point x="207" y="-16"/>
      <point x="60" y="77"/>
    </contour>
  </outline>
</glyph>
<glyph name="P" format="2">
  <advance width="569"/>
  <unicode hex="0050"/>
  <outline>
    <contour>
      <point x="163" y="0" type="curve"/>
      <point x="62" y="0" type="line"/>
      <point x="62" y="0"/>
      <point x="67" y="158"/>
      <point x="67" y="376" type="curve" smooth="yes"/>
      <point x="67" y="626"/>
      <point x="64" y="713"/>
      <point x="58" y="746" type="curve"/>
      <point x="58" y="746"/>
      <point x="150" y="764"/>
      <point x="223" y="764" type="curve" smooth="yes"/>
      <point x="409" y="764"/>
      <point x="512" y="682"/>
      <point x="512" y="532" type="curve" smooth="yes"/>
      <point x="512" y="360"/>
      <point x="402" y="285"/>
      <point x="235" y="285" type="curve" smooth="yes"/>
      <point x="147" y="285"/>
      <point x="122" y="287"/>
      <point x="122" y="287" type="curve"/>
      <point x="136" y="390" type="line"/>
      <point x="136" y="390"/>
      <point x="174" y="354"/>
      <point x="238" y="354" type="curve" smooth="yes"/>
      <point x="302" y="354"/>
      <point x="412" y="396"/>
      <point x="412" y="516" type="curve" smooth="yes"/>
      <point x="412" y="641"/>
      <point x="336" y="690"/>
      <point x="232" y="690" type="curve" smooth="yes"/>
      <point x="183" y="690"/>
      <point x="148" y="688"/>
      <point x="148" y="688" type="curve"/>
      <point x="159" y="695" type="line"/>
      <point x="159" y="695"/>
      <point x="158" y="518"/>
      <point x="158" y="324" type="curve" smooth="yes"/>
      <point x="158" y="47"/>
      <point x="163" y="0"/>
    </contour>
  </outline>
</glyph>
<glyph name="Q" format="2">
	<advance width="725"/>
	<unicode hex="0051"/>
	<anchor x="383" y="750" name="top"/>
	<anchor x="383" y="0" name="bottom"/>
	<outline>
		<contour>
			<point x="402" y="-215" type="curve" smooth="yes"/>
			<point x="485" y="-215"/>
			<point x="552" y="-197"/>
			<point x="579" y="-168" type="curve"/>
			<point x="580" y="-135"/>
			<point x="572" y="-107"/>
			<point x="555" y="-83" type="curve"/>
			<point x="503" y="-120"/>
			<point x="463" y="-133"/>
			<point x="398" y="-133" type="curve" smooth="yes"/>
			<point x="312" y="-133"/>
			<point x="252" y="-77"/>
			<point x="253" y="0" type="curve"/>
			<point x="216" y="0" type="line"/>
			<point x="234" y="-30"/>
			<point x="281" y="-52"/>
			<point x="329" y="-52" type="curve" smooth="yes"/>
			<point x="529" y="-52"/>
			<point x="665" y="121"/>
			<point x="665" y="374" type="curve" smooth="yes"/>
			<point x="665" y="626"/>
			<point x="558" y="766"/>
			<point x="365" y="766" type="curve" smooth="yes"/>
			<point x="173" y="766"/>
			<point x="60" y="633"/>
			<point x="60" y="405" type="curve" smooth="yes"/>
			<point x="60" y="257"/>
			<point x="118" y="137"/>
			<point x="213" y="88" type="curve"/>
			<point x="230" y="92"/>
			<point x="265" y="130"/>
			<point x="271" y="150" type="curve"/>
			<point x="207" y="190"/>
			<point x="175" y="276"/>
			<point x="175" y="405" type="curve" smooth="yes"/>
			<point x="175" y="583"/>
			<point x="244" y="683"/>
			<point x="365" y="683" type="curve" smooth="yes"/>
			<point x="486" y="683"/>
			<point x="550" y="576"/>
			<point x="550" y="374" type="curve" smooth="yes"/>
			<point x="550" y="164"/>
			<point x="455" y="27"/>
			<point x="310" y="27" type="curve" smooth="yes"/>
			<point x="278" y="27"/>
			<point x="235" y="35"/>
			<point x="206" y="46" type="curve"/>
			<point x="191" y="31"/>
			<point x="181" y="0"/>
			<point x="181" y="-30" type="curve" smooth="yes"/>
			<point x="181" y="-135"/>
			<point x="276" y="-215"/>
		</contour>
	</outline>
</glyph>
<glyph name="R" format="2">
	<advance width="567"/>
	<unicode hex="0052"/>
	<outline>
		<contour>
			<point x="206" y="300" type="line"/>
			<point x="213" y="300" type="line" smooth="yes"/>
			<point x="411" y="300"/>
			<point x="517" y="413"/>
			<point x="517" y="538" type="curve" smooth="yes"/>
			<point x="517" y="695"/>
			<point x="394" y="765"/>
			<point x="224" y="765" type="curve" smooth="yes"/>
			<point x="118" y="765"/>
			<point x="50" y="750"/>
			<point x="50" y="750" type="curve"/>
			<point x="96" y="686" type="line"/>
			<point x="96" y="686"/>
			<point x="175" y="686"/>
			<point x="236" y="686" type="curve" smooth="yes"/>
			<point x="354" y="686"/>
			<point x="412" y="626"/>
			<point x="412" y="538" type="curve" smooth="yes"/>
			<point x="412" y="458"/>
			<point x="363" y="369"/>
			<point x="253" y="369" type="curve" smooth="yes"/>
			<point x="228" y="369" type="line"/>
		</contour>
		<contour>
			<point x="53" y="0" type="curve"/>
			<point x="162" y="0" type="line"/>
			<point x="162" y="0"/>
			<point x="155" y="137"/>
			<point x="155" y="335" type="curve" smooth="yes"/>
			<point x="155" y="415" type="line" smooth="yes"/>
			<point x="155" y="615"/>
			<point x="165" y="750"/>
			<point x="165" y="750" type="curve"/>
			<point x="50" y="750" type="line"/>
			<point x="50" y="750"/>
			<point x="60" y="615"/>
			<point x="60" y="415" type="curve" smooth="yes"/>
			<point x="60" y="335" type="line" smooth="yes"/>
			<point x="60" y="137"/>
			<point x="53" y="0"/>
		</contour>
		<contour>
			<point x="472" y="-17" type="curve"/>
			<point x="503" y="0"/>
			<point x="525" y="31"/>
			<point x="534" y="63" type="curve"/>
			<point x="534" y="63"/>
			<point x="466.744" y="66.4339"/>
			<point x="355" y="244" type="curve" smooth="yes"/>
			<point x="282" y="360" type="line"/>
			<point x="206" y="300" type="line"/>
			<point x="295" y="166" type="line" smooth="yes"/>
			<point x="411.305" y="-9.11087"/>
			<point x="472" y="-17"/>
		</contour>
	</outline>
</glyph>
<glyph name="S" format="2">
	<advance width="600"/>
	<unicode hex="0053"/>
	<outline>
		<contour>
			<point x="287" y="-15" type="curve" smooth="yes"/>
			<point x="465" y="-15"/>
			<point x="561" y="64"/>
			<point x="561" y="193" type="curve" smooth="yes"/>
			<point x="561" y="314"/>
			<point x="442" y="380"/>
			<point x="341" y="433" type="curve" smooth="yes"/>
			<point x="263" y="474"/>
			<point x="172" y="504"/>
			<point x="170" y="578" type="curve" smooth="yes"/>
			<point x="168" y="637"/>
			<point x="209" y="682"/>
			<point x="301" y="682" type="curve" smooth="yes"/>
			<point x="438" y="682"/>
			<point x="486" y="609"/>
			<point x="486" y="609" type="curve"/>
			<point x="486" y="609"/>
			<point x="503" y="616"/>
			<point x="520" y="640" type="curve" smooth="yes"/>
			<point x="537" y="665"/>
			<point x="533" y="688"/>
			<point x="533" y="688" type="curve"/>
			<point x="533" y="688"/>
			<point x="437" y="766"/>
			<point x="305" y="766" type="curve" smooth="yes"/>
			<point x="162" y="766"/>
			<point x="60" y="703"/>
			<point x="60" y="563" type="curve" smooth="yes"/>
			<point x="60" y="445"/>
			<point x="187" y="395"/>
			<point x="290" y="339" type="curve" smooth="yes"/>
			<point x="366" y="298"/>
			<point x="448" y="263"/>
			<point x="448" y="181" type="curve" smooth="yes"/>
			<point x="448" y="111"/>
			<point x="389" y="73"/>
			<point x="291" y="73" type="curve" smooth="yes"/>
			<point x="171" y="73"/>
			<point x="86" y="167"/>
			<point x="86" y="167" type="curve"/>
			<point x="86" y="167"/>
			<point x="72" y="161"/>
			<point x="51" y="137" type="curve" smooth="yes"/>
			<point x="30" y="110"/>
			<point x="27" y="87"/>
			<point x="27" y="87" type="curve"/>
			<point x="32" y="82"/>
			<point x="141" y="-15"/>
		</contour>
	</outline>
</glyph>
<glyph name="T" format="2">
	<advance width="563"/>
	<unicode hex="0054"/>
	<anchor x="282" y="750" name="top"/>
	<anchor x="282" y="0" name="bottom"/>
	<anchor x="282" y="375" name="center"/>
	<outline>
		<contour>
			<point x="228" y="-1" type="curve"/>
			<point x="337" y="-1" type="line"/>
			<point x="337" y="-1"/>
			<point x="330" y="137"/>
			<point x="330" y="335" type="curve" smooth="yes"/>
			<point x="330" y="415" type="line" smooth="yes"/>
			<point x="330" y="615"/>
			<point x="340" y="750"/>
			<point x="340" y="750" type="curve"/>
			<point x="225" y="750" type="line"/>
			<point x="225" y="750"/>
			<point x="235" y="615"/>
			<point x="235" y="415" type="curve" smooth="yes"/>
			<point x="235" y="335" type="line" smooth="yes"/>
			<point x="235" y="137"/>
			<point x="228" y="-1"/>
		</contour>
		<contour>
			<point x="22" y="664" type="curve"/>
			<point x="73" y="671"/>
			<point x="146" y="675"/>
			<point x="282" y="675" type="curve" smooth="yes"/>
			<point x="418" y="675"/>
			<point x="490" y="671"/>
			<point x="541" y="664" type="curve"/>
			<point x="543" y="678"/>
			<point x="543" y="693"/>
			<point x="543" y="708" type="curve" smooth="yes"/>
			<point x="543" y="724"/>
			<point x="543" y="740"/>
			<point x="541" y="757" type="curve"/>
			<point x="474" y="752"/>
			<point x="412" y="750"/>
			<point x="282" y="750" type="curve" smooth="yes"/>
			<point x="152" y="750"/>
			<point x="89" y="752"/>
			<point x="22" y="757" type="curve"/>
			<point x="20" y="740"/>
			<point x="20" y="724"/>
			<point x="20" y="708" type="curve" smooth="yes"/>
			<point x="20" y="693"/>
			<point x="20" y="678"/>
		</contour>
	</outline>
</glyph>
<glyph name="U" format="2">
	<advance width="633"/>
	<unicode hex="0055"/>
	<outline>
		<contour>
			<point x="319" y="-16" type="curve" smooth="yes"/>
			<point x="448" y="-16"/>
			<point x="579" y="37"/>
			<point x="579" y="395" type="curve" smooth="yes"/>
			<point x="579" y="415" type="line" smooth="yes"/>
			<point x="579" y="616"/>
			<point x="589" y="750"/>
			<point x="589" y="750" type="curve"/>
			<point x="474" y="750" type="line"/>
			<point x="474" y="750"/>
			<point x="484" y="616"/>
			<point x="484" y="415" type="curve" smooth="yes"/>
			<point x="484" y="395" type="line" smooth="yes"/>
			<point x="484" y="106"/>
			<point x="402" y="67"/>
			<point x="319" y="67" type="curve" smooth="yes"/>
			<point x="233" y="67"/>
			<point x="149" y="106"/>
			<point x="149" y="395" type="curve" smooth="yes"/>
			<point x="149" y="415" type="line" smooth="yes"/>
			<point x="149" y="616"/>
			<point x="159" y="750"/>
			<point x="159" y="750" type="curve"/>
			<point x="44" y="750" type="line"/>
			<point x="44" y="750"/>
			<point x="54" y="616"/>
			<point x="54" y="415" type="curve" smooth="yes"/>
			<point x="54" y="395" type="line" smooth="yes"/>
			<point x="54" y="37"/>
			<point x="191" y="-16"/>
		</contour>
	</outline>
</glyph>
<glyph name="V" format="2">
  <advance width="621"/>
  <unicode hex="0056"/>
  <outline>
    <contour>
      <point x="369" y="0" type="line"/>
      <point x="616" y="750" type="line"/>
      <point x="591" y="760.129"/>
      <point x="560" y="760.129" type="curve" smooth="yes"/>
      <point x="522" y="760.129"/>
      <point x="503" y="750" type="line"/>
      <point x="279" y="0" type="line"/>
    </contour>
    <contour>
      <point x="252" y="0" type="line"/>
      <point x="342" y="0" type="line"/>
      <point x="118" y="750" type="line"/>
      <point x="99" y="760.129"/>
      <point x="61" y="760.129" type="curve" smooth="yes"/>
      <point x="30" y="760.129"/>
      <point x="5" y="750" type="line"/>
    </contour>
  </outline>
</glyph>
<glyph name="W" format="2">
	<advance width="838"/>
	<unicode hex="0057"/>
	<outline>
		<contour>
			<point x="566" y="0" type="line"/>
			<point x="643" y="0" type="line"/>
			<point x="594" y="276" type="line"/>
			<point x="466" y="750" type="line"/>
			<point x="409" y="750" type="line"/>
			<point x="419" y="651" type="line"/>
			<point x="477" y="374" type="line"/>
		</contour>
		<contour>
			<point x="148" y="0" type="line"/>
			<point x="213" y="0" type="line"/>
			<point x="175" y="377" type="line"/>
			<point x="118" y="750" type="line"/>
			<point x="102" y="750"/>
			<point x="64" y="750" type="curve" smooth="yes"/>
			<point x="15" y="750" type="line"/>
		</contour>
		<contour>
			<point x="195" y="0" type="line"/>
			<point x="272" y="0" type="line"/>
			<point x="361" y="374" type="line"/>
			<point x="419" y="651" type="line"/>
			<point x="429" y="750" type="line"/>
			<point x="372" y="750" type="line"/>
			<point x="244" y="276" type="line"/>
		</contour>
		<contour>
			<point x="625" y="0" type="line"/>
			<point x="690" y="0" type="line"/>
			<point x="823" y="750" type="line"/>
			<point x="805" y="750"/>
			<point x="774" y="750" type="curve" smooth="yes"/>
			<point x="720" y="750" type="line"/>
			<point x="663" y="377" type="line"/>
		</contour>
	</outline>
</glyph>
<glyph name="X" format="2">
	<advance width="600"/>
	<unicode hex="0058"/>
	<outline>
		<contour>
			<point x="138" y="0" type="curve"/>
			<point x="341" y="395" type="line"/>
			<point x="219" y="395" type="line"/>
			<point x="219" y="395"/>
			<point x="181" y="326"/>
			<point x="102" y="179" type="curve" smooth="yes"/>
			<point x="20" y="26"/>
			<point x="0" y="0"/>
			<point x="0" y="0" type="curve"/>
			<point x="0" y="0"/>
			<point x="34" y="-5"/>
			<point x="77" y="-5" type="curve" smooth="yes"/>
			<point x="126" y="-5"/>
			<point x="138" y="0"/>
		</contour>
		<contour>
			<point x="462" y="0" type="line"/>
			<point x="462" y="0"/>
			<point x="473" y="-5"/>
			<point x="537" y="-5" type="curve" smooth="yes"/>
			<point x="577" y="-5"/>
			<point x="598" y="0"/>
			<point x="598" y="0" type="curve"/>
			<point x="600" y="0"/>
			<point x="579" y="29"/>
			<point x="497" y="182" type="curve" smooth="yes"/>
			<point x="417" y="330"/>
			<point x="381" y="395"/>
			<point x="381" y="395" type="curve"/>
			<point x="261" y="395" type="line"/>
		</contour>
		<contour>
			<point x="155" y="750" type="line"/>
			<point x="155" y="750"/>
			<point x="143" y="758"/>
			<point x="90" y="758" type="curve" smooth="yes"/>
			<point x="42" y="758"/>
			<point x="17" y="750"/>
			<point x="17" y="750" type="curve"/>
			<point x="17" y="750"/>
			<point x="35" y="722"/>
			<point x="119" y="571" type="curve" smooth="yes"/>
			<point x="203" y="424"/>
			<point x="219" y="395"/>
			<point x="219" y="395" type="curve"/>
			<point x="324" y="395" type="line"/>
		</contour>
		<contour>
			<point x="446" y="750" type="curve"/>
			<point x="278" y="395" type="line"/>
			<point x="381" y="395" type="line"/>
			<point x="381" y="395"/>
			<point x="397" y="426"/>
			<point x="481" y="571" type="curve" smooth="yes"/>
			<point x="565" y="722"/>
			<point x="584" y="750"/>
			<point x="584" y="750" type="curve"/>
			<point x="584" y="750"/>
			<point x="570" y="758"/>
			<point x="525" y="758" type="curve" smooth="yes"/>
			<point x="455" y="758"/>
			<point x="446" y="750"/>
		</contour>
	</outline>
</glyph>
<glyph name="Y" format="2">
  <advance width="412"/>
  <unicode hex="0059"/>
  <outline>
    <contour>
      <point x="673" y="751" type="line"/>
      <point x="673" y="751"/>
      <point x="651" y="756"/>
      <point x="615" y="756" type="curve" smooth="yes"/>
      <point x="574" y="756"/>
      <point x="549" y="751"/>
      <point x="549" y="751" type="curve"/>
      <point x="379" y="375" type="line"/>
      <point x="205" y="751" type="line"/>
      <point x="205" y="751"/>
      <point x="186" y="756"/>
      <point x="144" y="756" type="curve" smooth="yes"/>
      <point x="108.261" y="756"/>
      <point x="80" y="751"/>
      <point x="80" y="751" type="curve"/>
      <point x="328" y="265" type="line" smooth="yes"/>
      <point x="321" y="0" type="line"/>
      <point x="430" y="0" type="line" smooth="yes"/>
      <point x="430" y="1"/>
      <point x="423" y="264"/>
      <point x="423" y="264" type="curve"/>
    </contour>
  </outline>
</glyph>
<glyph name="a" format="2">
	<advance width="504"/>
	<unicode hex="0061"/>
	<anchor x="259" y="550" name="top"/>
	<anchor x="259" y="0" name="bottom"/>
	<anchor x="457" y="10" name="ogonek"/>
	<outline>
		<contour>
			<point x="384" y="-18" type="curve"/>
			<point x="480" y="23" type="line"/>
			<point x="461" y="55"/>
			<point x="448" y="112"/>
			<point x="448" y="163" type="curve" smooth="yes"/>
			<point x="448" y="361" type="line" smooth="yes"/>
			<point x="448" y="504"/>
			<point x="380" y="566"/>
			<point x="224" y="566" type="curve" smooth="yes"/>
			<point x="171" y="566"/>
			<point x="104" y="556"/>
			<point x="65" y="542" type="curve"/>
			<point x="61" y="537"/>
			<point x="59" y="525"/>
			<point x="59" y="508" type="curve" smooth="yes"/>
			<point x="59" y="488"/>
			<point x="65" y="462"/>
			<point x="72" y="446" type="curve"/>
			<point x="102" y="468"/>
			<point x="166" y="483"/>
			<point x="224" y="483" type="curve" smooth="yes"/>
			<point x="320" y="483"/>
			<point x="353" y="448"/>
			<point x="353" y="345" type="curve" smooth="yes"/>
			<point x="353" y="273" type="line"/>
			<point x="354" y="273" type="line"/>
			<point x="354" y="120" type="line" smooth="yes"/>
			<point x="354" y="56"/>
			<point x="364" y="10"/>
		</contour>
		<contour>
			<point x="200" y="-16" type="curve" smooth="yes"/>
			<point x="295" y="-16"/>
			<point x="383" y="71"/>
			<point x="383" y="165" type="curve"/>
			<point x="354" y="206" type="line"/>
			<point x="354" y="128"/>
			<point x="296" y="69"/>
			<point x="217" y="69" type="curve" smooth="yes"/>
			<point x="166" y="69"/>
			<point x="135" y="102"/>
			<point x="135" y="159" type="curve" smooth="yes"/>
			<point x="135" y="230"/>
			<point x="191" y="265"/>
			<point x="299" y="265" type="curve" smooth="yes"/>
			<point x="332" y="265"/>
			<point x="360" y="264"/>
			<point x="382" y="262" type="curve"/>
			<point x="383" y="329" type="line"/>
			<point x="359" y="331"/>
			<point x="314" y="333"/>
			<point x="278" y="333" type="curve" smooth="yes"/>
			<point x="120" y="333"/>
			<point x="35" y="274"/>
			<point x="35" y="163" type="curve" smooth="yes"/>
			<point x="35" y="51"/>
			<point x="98" y="-16"/>
		</contour>
	</outline>
</glyph>
<glyph name="c" format="2">
  <advance width="497"/>
  <unicode hex="0063"/>
  <outline>
    <contour>
      <point x="289" y="566" type="curve" smooth="yes"/>
      <point x="382" y="566"/>
      <point x="448" y="548"/>
      <point x="448" y="548" type="curve"/>
      <point x="448" y="548"/>
      <point x="454" y="538"/>
      <point x="454" y="514" type="curve" smooth="yes"/>
      <point x="454" y="478"/>
      <point x="441" y="452"/>
      <point x="441" y="452" type="curve"/>
      <point x="441" y="452"/>
      <point x="386" y="480"/>
      <point x="289" y="480" type="curve" smooth="yes"/>
      <point x="219" y="480"/>
      <point x="140" y="443"/>
      <point x="140" y="275" type="curve" smooth="yes"/>
      <point x="140" y="107"/>
      <point x="217" y="63"/>
      <point x="289" y="63" type="curve" smooth="yes"/>
      <point x="361" y="63"/>
      <point x="437" y="113"/>
      <point x="437" y="113" type="curve"/>
      <point x="437" y="113"/>
      <point x="469" y="80"/>
      <point x="469" y="26" type="curve" smooth="yes"/>
      <point x="469" y="26"/>
      <point x="405" y="-15"/>
      <point x="293" y="-15" type="curve" smooth="yes"/>
      <point x="152" y="-15"/>
      <point x="41" y="61"/>
      <point x="41" y="275" type="curve" smooth="yes"/>
      <point x="41" y="499"/>
      <point x="169" y="566"/>
    </contour>
  </outline>
</glyph>
<glyph name="d" format="2">
	<advance width="562"/>
	<unicode hex="0064"/>
	<anchor x="281" y="800" name="top"/>
	<anchor x="281" y="0" name="bottom"/>
	<anchor x="281" y="275" name="center"/>
	<anchor x="542" y="800" name="topright"/>
	<outline>
		<contour>
			<point x="274" y="-16" type="curve" smooth="yes"/>
			<point x="402" y="-16"/>
			<point x="472" y="100"/>
			<point x="472" y="223" type="curve"/>
			<point x="413" y="215" type="line"/>
			<point x="413" y="128"/>
			<point x="349" y="64"/>
			<point x="281" y="64" type="curve" smooth="yes"/>
			<point x="212" y="64"/>
			<point x="138" y="136"/>
			<point x="138" y="275" type="curve" smooth="yes"/>
			<point x="138" y="391"/>
			<point x="184" y="485"/>
			<point x="282" y="485" type="curve" smooth="yes"/>
			<point x="373" y="485"/>
			<point x="413" y="406"/>
			<point x="413" y="341" type="curve"/>
			<point x="474" y="349" type="line"/>
			<point x="474" y="425"/>
			<point x="422" y="566"/>
			<point x="271" y="566" type="curve" smooth="yes"/>
			<point x="140" y="566"/>
			<point x="40" y="460"/>
			<point x="40" y="275" type="curve" smooth="yes"/>
			<point x="40" y="77"/>
			<point x="155" y="-16"/>
		</contour>
		<contour>
			<point x="447" y="0" type="line"/>
			<point x="503" y="0" type="line"/>
			<point x="504" y="577" type="line" smooth="yes"/>
			<point x="504" y="701"/>
			<point x="497" y="767"/>
			<point x="463" y="812" type="curve"/>
			<point x="434" y="803"/>
			<point x="403" y="788"/>
			<point x="370" y="769" type="curve"/>
			<point x="406" y="722"/>
			<point x="413" y="681"/>
			<point x="413" y="577" type="curve" smooth="yes"/>
			<point x="413" y="65" type="line"/>
		</contour>
	</outline>
</glyph>
<glyph name="e" format="2">
	<advance width="529"/>
	<unicode hex="0065"/>
	<anchor x="265" y="550" name="top"/>
	<anchor x="265" y="0" name="bottom"/>
	<anchor x="476" y="10" name="ogonek"/>
	<outline>
		<contour>
			<point x="303" y="-15" type="curve" smooth="yes"/>
			<point x="415" y="-13"/>
			<point x="489" y="33"/>
			<point x="489" y="33" type="curve"/>
			<point x="489" y="87"/>
			<point x="457" y="120"/>
			<point x="457" y="120" type="curve"/>
			<point x="440" y="108"/>
			<point x="382" y="63"/>
			<point x="296" y="63" type="curve" smooth="yes"/>
			<point x="221" y="63"/>
			<point x="139" y="100"/>
			<point x="139" y="275" type="curve" smooth="yes"/>
			<point x="139" y="443"/>
			<point x="207" y="488"/>
			<point x="278" y="488" type="curve" smooth="yes"/>
			<point x="372" y="488"/>
			<point x="396" y="422"/>
			<point x="396" y="336" type="curve"/>
			<point x="120" y="335" type="line"/>
			<point x="120" y="257" type="line"/>
			<point x="466" y="258" type="line"/>
			<point x="474" y="267"/>
			<point x="489" y="298"/>
			<point x="489" y="356" type="curve" smooth="yes"/>
			<point x="489" y="478"/>
			<point x="413" y="566"/>
			<point x="288" y="566" type="curve" smooth="yes"/>
			<point x="151" y="566"/>
			<point x="40" y="468"/>
			<point x="40" y="275" type="curve" smooth="yes"/>
			<point x="40" y="61"/>
			<point x="145" y="-18"/>
		</contour>
	</outline>
</glyph>
<glyph name="g" format="2">
	<advance width="578"/>
	<unicode hex="0067"/>
	<anchor x="289" y="550" name="top"/>
	<anchor x="289" y="-200" name="bottom"/>
	<outline>
		<contour>
			<point x="241" y="-216" type="curve" smooth="yes"/>
			<point x="391" y="-216"/>
			<point x="516" y="-153"/>
			<point x="516" y="65" type="curve" smooth="yes"/>
			<point x="516" y="550" type="line"/>
			<point x="460" y="550" type="line"/>
			<point x="426" y="488" type="line"/>
			<point x="426" y="48" type="line" smooth="yes"/>
			<point x="426" y="-58"/>
			<point x="375" y="-130"/>
			<point x="251" y="-130" type="curve" smooth="yes"/>
			<point x="139" y="-130"/>
			<point x="87" y="-90"/>
			<point x="87" y="-90" type="curve"/>
			<point x="72" y="-106"/>
			<point x="52" y="-136"/>
			<point x="51" y="-174" type="curve"/>
			<point x="51" y="-174"/>
			<point x="120" y="-216"/>
		</contour>
		<contour>
			<point x="287" y="-16" type="curve" smooth="yes"/>
			<point x="415" y="-16"/>
			<point x="485" y="100"/>
			<point x="485" y="223" type="curve"/>
			<point x="426" y="215" type="line"/>
			<point x="426" y="128"/>
			<point x="362" y="64"/>
			<point x="294" y="64" type="curve" smooth="yes"/>
			<point x="225" y="64"/>
			<point x="138" y="136"/>
			<point x="138" y="275" type="curve" smooth="yes"/>
			<point x="138" y="391"/>
			<point x="197" y="485"/>
			<point x="295" y="485" type="curve" smooth="yes"/>
			<point x="386" y="485"/>
			<point x="426" y="406"/>
			<point x="426" y="341" type="curve"/>
			<point x="487" y="349" type="line"/>
			<point x="487" y="425"/>
			<point x="435" y="566"/>
			<point x="284" y="566" type="curve" smooth="yes"/>
			<point x="153" y="566"/>
			<point x="40" y="460"/>
			<point x="40" y="275" type="curve" smooth="yes"/>
			<point x="40" y="77"/>
			<point x="168" y="-16"/>
		</contour>
	</outline>
</glyph>
<glyph name="h" format="2">
  <advance width="567"/>
  <unicode hex="0068"/>
  <outline>
    <contour>
      <point x="172" y="461" type="line"/>
      <point x="172" y="461"/>
      <point x="160" y="412"/>
      <point x="160" y="290" type="curve" smooth="yes"/>
      <point x="160" y="104"/>
      <point x="180" y="0"/>
      <point x="180" y="0" type="curve" smooth="yes"/>
      <point x="180" y="0"/>
      <point x="156" y="-2"/>
      <point x="121" y="-2" type="curve" smooth="yes"/>
      <point x="90" y="-2"/>
      <point x="68" y="0"/>
      <point x="68" y="0" type="curve"/>
      <point x="68" y="0"/>
      <point x="70" y="160"/>
      <point x="70" y="286" type="curve" smooth="yes"/>
      <point x="70" y="800" type="line"/>
      <point x="70" y="800"/>
      <point x="86" y="801.999"/>
      <point x="116" y="801.999" type="curve" smooth="yes"/>
      <point x="140" y="801.999"/>
      <point x="160.167" y="800"/>
      <point x="160.167" y="800" type="curve"/>
      <point x="160.167" y="461" type="line" smooth="yes"/>
    </contour>
    <contour>
      <point x="543" y="21" type="curve"/>
      <point x="511.667" y="3.66699"/>
      <point x="451" y="-20"/>
      <point x="451" y="-20" type="curve" smooth="yes"/>
      <point x="416.005" y="44.1606"/>
      <point x="408" y="108"/>
      <point x="408" y="193" type="curve" smooth="yes"/>
      <point x="408" y="339" type="line" smooth="yes"/>
      <point x="408" y="430"/>
      <point x="380" y="477"/>
      <point x="305" y="477" type="curve" smooth="yes"/>
      <point x="214" y="477"/>
      <point x="150" y="416"/>
      <point x="150" y="416" type="curve"/>
      <point x="114" y="461" type="line"/>
      <point x="114" y="461"/>
      <point x="215" y="566"/>
      <point x="333" y="566" type="curve" smooth="yes"/>
      <point x="460" y="566"/>
      <point x="498" y="502"/>
      <point x="498" y="329" type="curve" smooth="yes"/>
      <point x="498" y="217" type="line" smooth="yes"/>
      <point x="498" y="123"/>
      <point x="517" y="61"/>
    </contour>
  </outline>
</glyph>
<glyph name="i" format="2">
  <advance width="229"/>
  <unicode hex="0069"/>
  <outline>
    <contour>
      <point x="50" y="693.5" type="curve" smooth="yes"/>
      <point x="50" y="728.5"/>
      <point x="79" y="757.5"/>
      <point x="114" y="757.5" type="curve" smooth="yes"/>
      <point x="149" y="757.5"/>
      <point x="179" y="728.5"/>
      <point x="179" y="693.5" type="curve" smooth="yes"/>
      <point x="179" y="658.5"/>
      <point x="149" y="628.5"/>
      <point x="114" y="628.5" type="curve" smooth="yes"/>
      <point x="79" y="628.5"/>
      <point x="50" y="658.5"/>
    </contour>
    <contour>
      <point x="160" y="279" type="line"/>
      <point x="165" y="550" type="line"/>
      <point x="165" y="550"/>
      <point x="145" y="552"/>
      <point x="115" y="552" type="curve" smooth="yes"/>
      <point x="85" y="552"/>
      <point x="65" y="550"/>
      <point x="65" y="550" type="curve"/>
      <point x="68.333" y="487.333"/>
      <point x="70" y="398.333"/>
      <point x="70" y="279" type="curve" smooth="yes"/>
      <point x="70" y="273" type="line"/>
      <point x="65" y="0" type="line"/>
      <point x="65" y="0"/>
      <point x="85" y="-2"/>
      <point x="115" y="-2" type="curve" smooth="yes"/>
      <point x="145" y="-2"/>
      <point x="165" y="0"/>
      <point x="165" y="0" type="curve"/>
      <point x="161.667" y="62.667"/>
      <point x="160" y="153.667"/>
      <point x="160" y="273" type="curve" smooth="yes"/>
    </contour>
  </outline>
</glyph>
<glyph name="j" format="2">
	<advance width="600"/>
	<unicode hex="006A"/>
	<outline>
		<contour>
			<point x="219" y="694" type="curve" smooth="yes"/>
			<point x="219" y="729"/>
			<point x="248" y="758"/>
			<point x="283" y="758" type="curve" smooth="yes"/>
			<point x="318" y="758"/>
			<point x="348" y="729"/>
			<point x="348" y="694" type="curve" smooth="yes"/>
			<point x="348" y="659"/>
			<point x="318" y="629"/>
			<point x="283" y="629" type="curve" smooth="yes"/>
			<point x="248" y="629"/>
			<point x="219" y="659"/>
		</contour>
		<contour>
			<point x="336" y="550" type="line"/>
			<point x="336" y="550"/>
			<point x="229" y="550"/>
			<point x="229" y="550" type="curve"/>
			<point x="237" y="278" type="line"/>
			<point x="237" y="72" type="line" smooth="yes"/>
			<point x="237" y="-53"/>
			<point x="200" y="-108"/>
			<point x="159" y="-156" type="curve"/>
			<point x="176" y="-174"/>
			<point x="203" y="-190"/>
			<point x="232" y="-196" type="curve"/>
			<point x="290" y="-156"/>
			<point x="330" y="-88"/>
			<point x="330" y="36" type="curve" smooth="yes"/>
			<point x="330" y="282" type="line"/>
		</contour>
	</outline>
</glyph>
<glyph name="k" format="2">
  <advance width="567"/>
  <unicode hex="006B"/>
  <outline>
    <contour>
      <point x="143" y="273" type="line"/>
      <point x="242" y="273" type="line"/>
      <point x="312.791" y="168.766"/>
      <point x="389.893" y="-0.328125"/>
      <point x="389.893" y="-0.328125" type="curve"/>
      <point x="389.893" y="-0.328125"/>
      <point x="416.893" y="-0.328125"/>
      <point x="447.893" y="-0.328125" type="curve" smooth="yes"/>
      <point x="482.893" y="-0.328125"/>
      <point x="520.893" y="-0.328125"/>
      <point x="520.893" y="-0.328125" type="curve"/>
      <point x="520.893" y="-0.328125"/>
      <point x="402.083" y="187.775"/>
      <point x="315" y="316" type="curve" smooth="yes"/>
      <point x="528" y="557" type="line"/>
      <point x="528" y="557"/>
      <point x="500" y="561"/>
      <point x="464" y="561" type="curve" smooth="yes"/>
      <point x="434" y="561"/>
      <point x="403" y="557"/>
      <point x="403" y="557" type="curve"/>
      <point x="364.007" y="507.829"/>
      <point x="310.667" y="447"/>
      <point x="241.667" y="363" type="curve"/>
      <point x="143" y="363" type="line"/>
    </contour>
    <contour>
      <point x="161" y="526" type="curve"/>
      <point x="166" y="751" type="line"/>
      <point x="166" y="751"/>
      <point x="146" y="753"/>
      <point x="116" y="753" type="curve" smooth="yes"/>
      <point x="86" y="753"/>
      <point x="66" y="751"/>
      <point x="66" y="751" type="curve"/>
      <point x="69.333" y="688.333"/>
      <point x="70" y="645.333"/>
      <point x="70" y="526" type="curve"/>
      <point x="70" y="286" type="line"/>
      <point x="70" y="160"/>
      <point x="65" y="0"/>
      <point x="65" y="0" type="curve"/>
      <point x="65" y="0"/>
      <point x="90" y="0"/>
      <point x="121" y="0" type="curve" smooth="yes"/>
      <point x="156" y="0"/>
      <point x="177" y="0"/>
      <point x="177" y="0" type="curve"/>
      <point x="177" y="0"/>
      <point x="160" y="145"/>
      <point x="160" y="300" type="curve" smooth="yes"/>
      <point x="160" y="392"/>
      <point x="161" y="434"/>
    </contour>
  </outline>
</glyph>
<glyph name="l" format="2">
	<advance width="241"/>
	<unicode hex="006C"/>
	<anchor x="121" y="800" name="top"/>
	<anchor x="121" y="0" name="bottom"/>
	<anchor x="121" y="400" name="center"/>
	<anchor x="221" y="800" name="topright"/>
	<outline>
		<contour>
			<point x="108" y="-19" type="curve"/>
			<point x="146" y="-13"/>
			<point x="178" y="-3"/>
			<point x="201" y="21" type="curve"/>
			<point x="165" y="68"/>
			<point x="152" y="124"/>
			<point x="152" y="249" type="curve" smooth="yes"/>
			<point x="152" y="800" type="line"/>
			<point x="152" y="800"/>
			<point x="132" y="802"/>
			<point x="108" y="802" type="curve" smooth="yes"/>
			<point x="78" y="802"/>
			<point x="62" y="800"/>
			<point x="62" y="800" type="curve"/>
			<point x="62" y="213" type="line" smooth="yes"/>
			<point x="62" y="89"/>
			<point x="74" y="26"/>
		</contour>
	</outline>
</glyph>
<glyph name="m" format="2">
	<advance width="900"/>
	<unicode hex="006D"/>
	<anchor x="450" y="550" name="top"/>
	<anchor x="450" y="0" name="bottom"/>
	<outline>
		<contour>
			<point x="767" y="-19" type="curve"/>
			<point x="803" y="-17"/>
			<point x="842" y="2"/>
			<point x="857" y="28" type="curve"/>
			<point x="857" y="28"/>
			<point x="831" y="69"/>
			<point x="831" y="149" type="curve" smooth="yes"/>
			<point x="831" y="329" type="line" smooth="yes"/>
			<point x="831" y="502"/>
			<point x="777" y="566"/>
			<point x="644" y="566" type="curve" smooth="yes"/>
			<point x="531" y="566"/>
			<point x="438" y="474"/>
			<point x="438" y="368" type="curve"/>
			<point x="494" y="276" type="line"/>
			<point x="494" y="432"/>
			<point x="555" y="477"/>
			<point x="638" y="477" type="curve" smooth="yes"/>
			<point x="704" y="477"/>
			<point x="741" y="454"/>
			<point x="741" y="339" type="curve" smooth="yes"/>
			<point x="741" y="132" type="line" smooth="yes"/>
			<point x="741" y="13"/>
			<point x="767" y="-19"/>
		</contour>
		<contour>
			<point x="117" y="-2" type="curve" smooth="yes"/>
			<point x="152" y="-2"/>
			<point x="176" y="0"/>
			<point x="176" y="0" type="curve"/>
			<point x="176" y="0"/>
			<point x="156" y="104"/>
			<point x="156" y="290" type="curve" smooth="yes"/>
			<point x="156" y="482" type="line"/>
			<point x="119" y="553" type="line"/>
			<point x="62" y="553" type="line"/>
			<point x="62" y="553"/>
			<point x="66" y="397"/>
			<point x="66" y="286" type="curve" smooth="yes"/>
			<point x="66" y="160"/>
			<point x="64" y="0"/>
			<point x="64" y="0" type="curve"/>
			<point x="64" y="0"/>
			<point x="86" y="-2"/>
		</contour>
		<contour>
			<point x="455" y="-2" type="curve" smooth="yes"/>
			<point x="490" y="-2"/>
			<point x="514" y="0"/>
			<point x="514" y="0" type="curve"/>
			<point x="514" y="0"/>
			<point x="494" y="90"/>
			<point x="494" y="276" type="curve" smooth="yes"/>
			<point x="494" y="474"/>
			<point x="441" y="566"/>
			<point x="301" y="566" type="curve" smooth="yes"/>
			<point x="199" y="566"/>
			<point x="100" y="477"/>
			<point x="100" y="390" type="curve"/>
			<point x="156" y="342" type="line"/>
			<point x="156" y="402"/>
			<point x="195" y="477"/>
			<point x="286" y="477" type="curve" smooth="yes"/>
			<point x="368" y="477"/>
			<point x="404" y="440"/>
			<point x="404" y="286" type="curve" smooth="yes"/>
			<point x="404" y="160"/>
			<point x="402" y="0"/>
			<point x="402" y="0" type="curve"/>
			<point x="402" y="0"/>
			<point x="424" y="-2"/>
		</contour>
	</outline>
</glyph>
<glyph name="n" format="2">
	<advance width="567"/>
	<unicode hex="006E"/>
	<anchor x="284" y="550" name="top"/>
	<anchor x="284" y="0" name="bottom"/>
	<outline>
		<contour>
			<point x="451" y="-20" type="curve"/>
			<point x="451" y="-20"/>
			<point x="512" y="4"/>
			<point x="543" y="21" type="curve"/>
			<point x="517" y="61"/>
			<point x="498" y="123"/>
			<point x="498" y="217" type="curve" smooth="yes"/>
			<point x="498" y="329" type="line" smooth="yes"/>
			<point x="498" y="502"/>
			<point x="460" y="566"/>
			<point x="333" y="566" type="curve" smooth="yes"/>
			<point x="215" y="566"/>
			<point x="114" y="461"/>
			<point x="114" y="461" type="curve"/>
			<point x="150" y="416" type="line"/>
			<point x="150" y="416"/>
			<point x="214" y="477"/>
			<point x="305" y="477" type="curve" smooth="yes"/>
			<point x="380" y="477"/>
			<point x="408" y="430"/>
			<point x="408" y="339" type="curve" smooth="yes"/>
			<point x="408" y="193" type="line" smooth="yes"/>
			<point x="408" y="108"/>
			<point x="416" y="44"/>
		</contour>
		<contour>
			<point x="121" y="-2" type="curve" smooth="yes"/>
			<point x="156" y="-2"/>
			<point x="180" y="0"/>
			<point x="180" y="0" type="curve"/>
			<point x="180" y="0"/>
			<point x="160" y="104"/>
			<point x="160" y="290" type="curve" smooth="yes"/>
			<point x="160" y="412"/>
			<point x="172" y="461"/>
			<point x="172" y="461" type="curve"/>
			<point x="123" y="553" type="line"/>
			<point x="66" y="553" type="line"/>
			<point x="66" y="553"/>
			<point x="70" y="397"/>
			<point x="70" y="286" type="curve" smooth="yes"/>
			<point x="70" y="160"/>
			<point x="68" y="0"/>
			<point x="68" y="0" type="curve"/>
			<point x="68" y="0"/>
			<point x="90" y="-2"/>
		</contour>
	</outline>
</glyph>
<glyph name="o" format="2">
	<advance width="579"/>
	<unicode hex="006F"/>
	<anchor x="290" y="550" name="top"/>
	<anchor x="290" y="0" name="bottom"/>
	<anchor x="290" y="275" name="center"/>
	<anchor x="559" y="550" name="topright"/>
	<anchor x="521" y="10" name="ogonek"/>
	<outline>
		<contour>
			<point x="290" y="-15" type="curve" smooth="yes"/>
			<point x="443" y="-15"/>
			<point x="539" y="86"/>
			<point x="539" y="275" type="curve" smooth="yes"/>
			<point x="539" y="465"/>
			<point x="443" y="566"/>
			<point x="290" y="566" type="curve" smooth="yes"/>
			<point x="146" y="566"/>
			<point x="40" y="466"/>
			<point x="40" y="276" type="curve" smooth="yes"/>
			<point x="40" y="86"/>
			<point x="146" y="-15"/>
		</contour>
		<contour>
			<point x="290" y="65" type="curve" smooth="yes"/>
			<point x="212" y="65"/>
			<point x="139" y="126"/>
			<point x="139" y="275" type="curve" smooth="yes"/>
			<point x="139" y="425"/>
			<point x="212" y="486"/>
			<point x="290" y="486" type="curve" smooth="yes"/>
			<point x="368" y="486"/>
			<point x="440" y="426"/>
			<point x="440" y="276" type="curve" smooth="yes"/>
			<point x="440" y="126"/>
			<point x="368" y="65"/>
		</contour>
	</outline>
</glyph>
<glyph name="p" format="2">
	<advance width="583"/>
	<unicode hex="0070"/>
	<anchor x="296" y="550" name="top"/>
	<anchor x="296" y="0" name="bottom"/>
	<outline>
		<contour>
			<point x="319" y="-15" type="curve" smooth="yes"/>
			<point x="453" y="-15"/>
			<point x="543" y="104"/>
			<point x="543" y="275" type="curve" smooth="yes"/>
			<point x="543" y="484"/>
			<point x="440" y="566"/>
			<point x="319" y="566" type="curve" smooth="yes"/>
			<point x="170" y="566"/>
			<point x="120" y="425"/>
			<point x="120" y="425" type="curve"/>
			<point x="161" y="335" type="line"/>
			<point x="161" y="428"/>
			<point x="232" y="485"/>
			<point x="299" y="485" type="curve" smooth="yes"/>
			<point x="394" y="485"/>
			<point x="442" y="430"/>
			<point x="442" y="275" type="curve" smooth="yes"/>
			<point x="442" y="151"/>
			<point x="384" y="68"/>
			<point x="308" y="65" type="curve" smooth="yes"/>
			<point x="228" y="61"/>
			<point x="161" y="115"/>
			<point x="161" y="231" type="curve"/>
			<point x="132" y="80" type="line"/>
			<point x="155" y="45"/>
			<point x="199" y="-15"/>
		</contour>
		<contour>
			<point x="116" y="-203" type="curve" smooth="yes"/>
			<point x="146" y="-203"/>
			<point x="174" y="-200"/>
			<point x="174" y="-200" type="curve"/>
			<point x="174" y="-200"/>
			<point x="161" y="-144"/>
			<point x="161" y="80" type="curve" smooth="yes"/>
			<point x="161" y="471" type="line"/>
			<point x="172" y="471" type="line"/>
			<point x="120" y="553" type="line"/>
			<point x="69" y="553" type="line"/>
			<point x="69" y="553"/>
			<point x="71" y="523"/>
			<point x="71" y="265" type="curve" smooth="yes"/>
			<point x="71" y="161" type="line" smooth="yes"/>
			<point x="71" y="-109"/>
			<point x="66" y="-200"/>
			<point x="66" y="-200" type="curve"/>
			<point x="66" y="-200"/>
			<point x="86" y="-203"/>
		</contour>
	</outline>
</glyph>
<glyph name="q" format="2">
	<advance width="581"/>
	<unicode hex="0071"/>
	<anchor x="279" y="550" name="top"/>
	<anchor x="279" y="0" name="bottom"/>
	<outline>
		<contour>
			<point x="274" y="-16" type="curve" smooth="yes"/>
			<point x="402" y="-16"/>
			<point x="472" y="100"/>
			<point x="472" y="223" type="curve"/>
			<point x="413" y="215" type="line"/>
			<point x="413" y="128"/>
			<point x="349" y="64"/>
			<point x="281" y="64" type="curve" smooth="yes"/>
			<point x="212" y="64"/>
			<point x="138" y="136"/>
			<point x="138" y="275" type="curve" smooth="yes"/>
			<point x="138" y="391"/>
			<point x="184" y="485"/>
			<point x="282" y="485" type="curve" smooth="yes"/>
			<point x="373" y="485"/>
			<point x="413" y="406"/>
			<point x="413" y="341" type="curve"/>
			<point x="474" y="349" type="line"/>
			<point x="474" y="425"/>
			<point x="422" y="566"/>
			<point x="271" y="566" type="curve" smooth="yes"/>
			<point x="140" y="566"/>
			<point x="40" y="460"/>
			<point x="40" y="275" type="curve" smooth="yes"/>
			<point x="40" y="77"/>
			<point x="155" y="-16"/>
		</contour>
		<contour>
			<point x="464" y="-216" type="curve"/>
			<point x="493" y="-207"/>
			<point x="524" y="-192"/>
			<point x="557" y="-173" type="curve"/>
			<point x="521" y="-126"/>
			<point x="503" y="-70"/>
			<point x="503" y="55" type="curve" smooth="yes"/>
			<point x="503" y="553" type="line"/>
			<point x="447" y="553" type="line"/>
			<point x="413" y="488" type="line"/>
			<point x="413" y="19" type="line" smooth="yes"/>
			<point x="413" y="-105"/>
			<point x="430" y="-171"/>
		</contour>
	</outline>
</glyph>
<glyph name="r" format="1">
  <advance width="375"/>
  <unicode hex="0072"/>
  <outline>
    <contour>
      <point x="121" y="-2" type="curve" smooth="yes"/>
      <point x="156" y="-2"/>
      <point x="180" y="0"/>
      <point x="180" y="0" type="curve"/>
      <point x="180" y="0"/>
      <point x="160" y="104"/>
      <point x="160" y="290" type="curve" smooth="yes"/>
      <point x="160" y="481" type="line"/>
      <point x="123" y="550" type="line"/>
      <point x="66" y="550" type="line"/>
      <point x="66" y="550"/>
      <point x="70" y="397"/>
      <point x="70" y="286" type="curve" smooth="yes"/>
      <point x="70" y="160"/>
      <point x="68" y="0"/>
      <point x="68" y="0" type="curve"/>
      <point x="68" y="0"/>
      <point x="90" y="-2"/>
    </contour>
    <contour>
      <point x="160" y="321" type="line"/>
      <point x="160" y="414"/>
      <point x="198" y="480"/>
      <point x="264" y="480" type="curve" smooth="yes"/>
      <point x="307" y="480"/>
      <point x="329" y="457"/>
      <point x="329" y="457" type="curve"/>
      <point x="348" y="475"/>
      <point x="363" y="503"/>
      <point x="368" y="532" type="curve"/>
      <point x="368" y="532"/>
      <point x="339" y="566"/>
      <point x="268" y="566" type="curve" smooth="yes"/>
      <point x="176" y="566"/>
      <point x="112" y="456"/>
      <point x="112" y="340" type="curve"/>
    </contour>
  </outline>
</glyph>
<glyph name="s" format="2">
	<advance width="600"/>
	<unicode hex="0073"/>
	<outline>
		<contour>
			<point x="0" y="0"/>
			<point x="0" y="0"/>
		</contour>
		<contour>
			<point x="204" y="375"/>
			<point x="271" y="352"/>
			<point x="334" y="324" type="curve" smooth="yes"/>
			<point x="415" y="287"/>
			<point x="505" y="242"/>
			<point x="505" y="154" type="curve" smooth="yes"/>
			<point x="505" y="58"/>
			<point x="420" y="-11"/>
			<point x="288" y="-11" type="curve" smooth="yes"/>
			<point x="174" y="-11"/>
			<point x="92" y="44"/>
			<point x="92" y="44" type="curve"/>
			<point x="92" y="44"/>
			<point x="86" y="54"/>
			<point x="86" y="78" type="curve" smooth="yes"/>
			<point x="86" y="114"/>
			<point x="100" y="130"/>
			<point x="100" y="130" type="curve"/>
			<point x="100" y="130"/>
			<point x="180" y="75"/>
			<point x="288" y="75" type="curve" smooth="yes"/>
			<point x="350" y="75"/>
			<point x="397" y="95"/>
			<point x="397" y="140" type="curve" smooth="yes"/>
			<point x="397" y="178"/>
			<point x="333" y="201"/>
			<point x="273" y="229" type="curve" smooth="yes"/>
			<point x="191" y="268"/>
			<point x="96" y="315"/>
			<point x="96" y="402" type="curve" smooth="yes"/>
			<point x="96" y="505"/>
			<point x="177" y="566"/>
			<point x="289" y="566" type="curve" smooth="yes"/>
			<point x="392" y="566"/>
			<point x="454" y="528"/>
			<point x="454" y="528" type="curve"/>
			<point x="454" y="528"/>
			<point x="460" y="518"/>
			<point x="460" y="494" type="curve" smooth="yes"/>
			<point x="460" y="458"/>
			<point x="446" y="442"/>
			<point x="446" y="442" type="curve"/>
			<point x="446" y="442"/>
			<point x="396" y="480"/>
			<point x="289" y="480" type="curve" smooth="yes"/>
			<point x="240" y="480"/>
			<point x="204" y="458"/>
			<point x="204" y="414" type="curve"/>
		</contour>
	</outline>
</glyph>
<glyph name="t" format="1">
  <advance width="442"/>
  <unicode hex="0074"/>
  <outline>
    <contour>
      <point x="352" y="468" type="curve"/>
      <point x="357" y="492"/>
      <point x="358" y="534"/>
      <point x="352" y="556" type="curve"/>
      <point x="352" y="556"/>
      <point x="282" y="550"/>
      <point x="174" y="550" type="curve" smooth="yes"/>
      <point x="20" y="550" type="line"/>
      <point x="20" y="473" type="line"/>
      <point x="179" y="473" type="line" smooth="yes"/>
      <point x="305" y="473"/>
      <point x="352" y="468"/>
    </contour>
    <contour>
      <point x="251" y="-15" type="curve" smooth="yes"/>
      <point x="365" y="-16"/>
      <point x="429" y="47"/>
      <point x="475" y="123" type="curve"/>
      <point x="438" y="168" type="line"/>
      <point x="393" y="97"/>
      <point x="350" y="64"/>
      <point x="279" y="64" type="curve" smooth="yes"/>
      <point x="208" y="64"/>
      <point x="178" y="124"/>
      <point x="178" y="199" type="curve" smooth="yes"/>
      <point x="178" y="305"/>
      <point x="179" y="558"/>
      <point x="184" y="680" type="curve"/>
      <point x="152" y="684"/>
      <point x="120" y="684"/>
      <point x="85" y="678" type="curve"/>
      <point x="87" y="558"/>
      <point x="85" y="309"/>
      <point x="88" y="189" type="curve" smooth="yes"/>
      <point x="91" y="66"/>
      <point x="159" y="-14"/>
    </contour>
    <contour>
      <point x="221" y="0" type="move" name="bottom"/>
    </contour>
    <contour>
      <point x="221" y="275" type="move" name="center"/>
    </contour>
    <contour>
      <point x="221" y="550" type="move" name="top"/>
    </contour>
    <contour>
      <point x="422" y="800" type="move" name="topright"/>
    </contour>
  </outline>
</glyph>
<glyph name="u" format="2">
	<advance width="585"/>
	<unicode hex="0075"/>
	<outline>
		<contour>
			<point x="435" y="-19" type="curve"/>
			<point x="479" y="-15"/>
			<point x="515" y="7"/>
			<point x="525" y="28" type="curve"/>
			<point x="525" y="28"/>
			<point x="499" y="61"/>
			<point x="499" y="152" type="curve" smooth="yes"/>
			<point x="499" y="281" type="line"/>
			<point x="504" y="550" type="line"/>
			<point x="504" y="550"/>
			<point x="484" y="552"/>
			<point x="454" y="552" type="curve" smooth="yes"/>
			<point x="424" y="552"/>
			<point x="404" y="550"/>
			<point x="404" y="550" type="curve"/>
			<point x="407" y="487"/>
			<point x="409" y="386"/>
			<point x="409" y="281" type="curve" smooth="yes"/>
			<point x="409" y="130" type="line" smooth="yes"/>
			<point x="409" y="86"/>
			<point x="415" y="9"/>
		</contour>
		<contour>
			<point x="250" y="-16" type="curve" smooth="yes"/>
			<point x="349" y="-16"/>
			<point x="410" y="49"/>
			<point x="459" y="123" type="curve"/>
			<point x="422" y="168" type="line"/>
			<point x="367" y="64"/>
			<point x="268" y="64" type="curve" smooth="yes"/>
			<point x="252" y="64"/>
			<point x="236" y="67"/>
			<point x="223" y="73" type="curve" smooth="yes"/>
			<point x="171" y="98"/>
			<point x="161" y="163"/>
			<point x="161" y="220" type="curve" smooth="yes"/>
			<point x="166" y="550" type="line"/>
			<point x="146" y="552"/>
			<point x="116" y="552" type="curve" smooth="yes"/>
			<point x="86" y="552"/>
			<point x="66" y="550"/>
			<point x="66" y="550" type="curve"/>
			<point x="71" y="275" type="line"/>
			<point x="71" y="228" type="line" smooth="yes"/>
			<point x="71" y="64"/>
			<point x="133" y="-16"/>
		</contour>
	</outline>
</glyph>
<glyph name="v" format="2">
  <advance width="508"/>
  <unicode hex="0076"/>
  <outline>
    <contour>
      <point x="508" y="550" type="curve"/>
      <point x="316" y="0" type="line"/>
      <point x="210" y="0" type="line"/>
      <point x="222" y="57" type="line"/>
      <point x="247" y="47" type="line"/>
      <point x="316" y="249" type="line"/>
      <point x="404" y="550" type="line"/>
      <point x="404" y="550"/>
      <point x="409" y="555"/>
      <point x="459" y="555" type="curve" smooth="yes"/>
      <point x="500" y="555"/>
      <point x="508" y="550"/>
    </contour>
    <contour>
      <point x="0" y="550" type="line"/>
      <point x="0" y="550"/>
      <point x="8" y="555"/>
      <point x="49" y="555" type="curve" smooth="yes"/>
      <point x="99" y="555"/>
      <point x="104" y="550"/>
      <point x="104" y="550" type="curve"/>
      <point x="192" y="249" type="line"/>
      <point x="261" y="47" type="line"/>
      <point x="286" y="57" type="line"/>
      <point x="298" y="0" type="line"/>
      <point x="192" y="0" type="line"/>
    </contour>
  </outline>
</glyph>
<glyph name="w" format="2">
  <advance width="777"/>
  <unicode hex="0077"/>
  <outline>
    <contour>
      <point x="352" y="550" type="line"/>
      <point x="450" y="550" type="line"/>
      <point x="517" y="249" type="line"/>
      <point x="560" y="47" type="line"/>
      <point x="581.616" y="57" type="line"/>
      <point x="594" y="0" type="line"/>
      <point x="483" y="0" type="line"/>
      <point x="435" y="211" type="line"/>
      <point x="387" y="477" type="line"/>
    </contour>
    <contour>
      <point x="777" y="550" type="curve"/>
      <point x="627" y="0" type="line"/>
      <point x="526" y="0" type="line"/>
      <point x="538.384" y="57" type="line"/>
      <point x="560" y="47" type="line"/>
      <point x="611" y="275" type="line"/>
      <point x="673" y="550" type="line"/>
      <point x="673" y="550"/>
      <point x="678" y="555"/>
      <point x="728" y="555" type="curve" smooth="yes"/>
      <point x="769" y="555"/>
      <point x="777" y="550"/>
    </contour>
    <contour>
      <point x="425" y="550" type="line"/>
      <point x="390" y="477" type="line"/>
      <point x="342" y="211" type="line"/>
      <point x="294" y="0" type="line"/>
      <point x="183" y="0" type="line"/>
      <point x="195.384" y="57" type="line"/>
      <point x="217" y="47" type="line"/>
      <point x="260" y="249" type="line"/>
      <point x="327" y="550" type="line"/>
    </contour>
    <contour>
      <point x="0" y="550" type="line"/>
      <point x="0" y="550"/>
      <point x="8" y="555"/>
      <point x="49" y="555" type="curve" smooth="yes"/>
      <point x="99" y="555"/>
      <point x="104" y="550"/>
      <point x="104" y="550" type="curve"/>
      <point x="166" y="275" type="line"/>
      <point x="217" y="47" type="line"/>
      <point x="238.616" y="57" type="line"/>
      <point x="251" y="0" type="line"/>
      <point x="150" y="0" type="line"/>
    </contour>
  </outline>
</glyph>
<glyph name="x" format="2">
	<advance width="600"/>
	<unicode hex="0078"/>
	<outline>
		<contour>
			<point x="170" y="0" type="curve"/>
			<point x="329" y="289" type="line"/>
			<point x="225" y="289" type="line"/>
			<point x="225" y="289"/>
			<point x="197" y="238"/>
			<point x="133" y="129" type="curve" smooth="yes"/>
			<point x="70" y="20"/>
			<point x="54" y="0"/>
			<point x="54" y="0" type="curve"/>
			<point x="54" y="0"/>
			<point x="80" y="-3"/>
			<point x="114" y="-3" type="curve" smooth="yes"/>
			<point x="152" y="-3"/>
			<point x="170" y="0"/>
		</contour>
		<contour>
			<point x="408" y="0" type="line"/>
			<point x="408" y="0"/>
			<point x="425" y="-3"/>
			<point x="474" y="-3" type="curve" smooth="yes"/>
			<point x="505" y="-3"/>
			<point x="522" y="0"/>
			<point x="522" y="0" type="curve"/>
			<point x="524" y="0"/>
			<point x="506" y="23"/>
			<point x="443" y="132" type="curve" smooth="yes"/>
			<point x="379" y="241"/>
			<point x="352" y="289"/>
			<point x="352" y="289" type="curve"/>
			<point x="250" y="289" type="line"/>
		</contour>
		<contour>
			<point x="173" y="549" type="line"/>
			<point x="173" y="549"/>
			<point x="157" y="555"/>
			<point x="118" y="555" type="curve" smooth="yes"/>
			<point x="84" y="555"/>
			<point x="67" y="549"/>
			<point x="67" y="549" type="curve"/>
			<point x="67" y="549"/>
			<point x="80" y="527"/>
			<point x="147" y="420" type="curve" smooth="yes"/>
			<point x="215" y="311"/>
			<point x="225" y="289"/>
			<point x="225" y="289" type="curve"/>
			<point x="314" y="289" type="line"/>
		</contour>
		<contour>
			<point x="406" y="549" type="curve"/>
			<point x="264" y="289" type="line"/>
			<point x="352" y="289" type="line"/>
			<point x="352" y="289"/>
			<point x="363" y="313"/>
			<point x="430" y="420" type="curve" smooth="yes"/>
			<point x="498" y="528"/>
			<point x="511" y="555"/>
			<point x="511" y="549" type="curve"/>
			<point x="511" y="549"/>
			<point x="501" y="555"/>
			<point x="470" y="555" type="curve" smooth="yes"/>
			<point x="421" y="555"/>
			<point x="406" y="549"/>
		</contour>
	</outline>
</glyph>
<glyph name="y" format="2">
  <advance width="431"/>
  <unicode hex="0079"/>
  <outline>
    <contour>
      <point x="186" y="-6" type="line"/>
      <point x="186" y="-6"/>
      <point x="220" y="101"/>
      <point x="228" y="134" type="curve"/>
      <point x="86.5039" y="550" type="line"/>
      <point x="86.5039" y="550"/>
      <point x="70.5039" y="555"/>
      <point x="20.5039" y="555" type="curve" smooth="yes"/>
      <point x="-14.4961" y="555"/>
      <point x="-25.4961" y="550"/>
      <point x="-25.4961" y="550" type="curve"/>
    </contour>
    <contour>
      <point x="191" y="13" type="line"/>
      <point x="165" y="-69"/>
      <point x="121" y="-123.562"/>
      <point x="63.7178" y="-123.562" type="curve" smooth="yes"/>
      <point x="59.3838" y="-123.562"/>
      <point x="53.3252" y="-124.105"/>
      <point x="49.124" y="-123.17" type="curve"/>
      <point x="48.4961" y="-199.315" type="line"/>
      <point x="48.4961" y="-199.315"/>
      <point x="66.4922" y="-204"/>
      <point x="87" y="-204" type="curve" smooth="yes"/>
      <point x="172.667" y="-204"/>
      <point x="220.992" y="-137.777"/>
      <point x="250.504" y="-65" type="curve" smooth="yes"/>
      <point x="287" y="25"/>
      <point x="288.658" y="45.2588"/>
      <point x="359.504" y="275" type="curve" smooth="yes"/>
      <point x="429.504" y="502"/>
      <point x="450.504" y="550"/>
      <point x="450.504" y="550" type="curve"/>
      <point x="450.504" y="550"/>
      <point x="430.243" y="555"/>
      <point x="394.504" y="555" type="curve" smooth="yes"/>
      <point x="353.504" y="555"/>
      <point x="338.504" y="550"/>
      <point x="338.504" y="550" type="curve"/>
    </contour>
  </outline>
</glyph>
<glyph name="z" format="2">
  <advance width="497"/>
  <unicode hex="007A"/>
  <outline>
    <contour>
      <point x="448" y="-4" type="line"/>
      <point x="456" y="20"/>
      <point x="456" y="79"/>
      <point x="450" y="98" type="curve"/>
      <point x="368" y="78"/>
      <point x="211" y="78" type="curve" smooth="yes"/>
      <point x="136" y="78" type="line"/>
      <point x="139" y="38" type="line"/>
      <point x="238" y="187" type="line"/>
      <point x="465" y="534" type="line"/>
      <point x="465" y="550" type="line"/>
      <point x="205" y="550" type="line" smooth="yes"/>
      <point x="145" y="550"/>
      <point x="50" y="554" type="line"/>
      <point x="42" y="530"/>
      <point x="42" y="471"/>
      <point x="48" y="452" type="curve"/>
      <point x="138" y="472"/>
      <point x="244" y="472" type="curve" smooth="yes"/>
      <point x="369" y="472" type="line"/>
      <point x="362" y="526" type="line"/>
      <point x="266" y="384" type="line"/>
      <point x="32" y="18" type="line"/>
      <point x="32" y="0" type="line"/>
      <point x="263" y="0" type="line" smooth="yes"/>
      <point x="297" y="0"/>
    </contour>
  </outline>
</glyph>
<glyph name="exclamdown" format="2">
	<advance width="329"/>
	<unicode hex="00A1"/>
	<outline>
		<contour>
			<point x="100" y="502" type="curve" smooth="yes"/>
			<point x="100" y="537"/>
			<point x="129" y="566"/>
			<point x="164" y="566" type="curve" smooth="yes"/>
			<point x="199" y="566"/>
			<point x="229" y="537"/>
			<point x="229" y="502" type="curve" smooth="yes"/>
			<point x="229" y="467"/>
			<point x="199" y="437"/>
			<point x="164" y="437" type="curve" smooth="yes"/>
			<point x="129" y="437"/>
			<point x="100" y="467"/>
		</contour>
		<contour>
			<point x="210" y="137" type="line"/>
			<point x="209" y="351" type="line"/>
			<point x="209" y="351"/>
			<point x="193" y="351"/>
			<point x="165" y="351" type="curve" smooth="yes"/>
			<point x="137" y="351"/>
			<point x="124" y="351"/>
			<point x="124" y="351" type="curve"/>
			<point x="126" y="289"/>
			<point x="120" y="208"/>
			<point x="120" y="137" type="curve" smooth="yes"/>
			<point x="120" y="131" type="line"/>
			<point x="110" y="-192" type="line"/>
			<point x="110" y="-192"/>
			<point x="135" y="-198"/>
			<point x="165" y="-198" type="curve" smooth="yes"/>
			<point x="195" y="-198"/>
			<point x="223" y="-192"/>
			<point x="223" y="-192" type="curve"/>
			<point x="220" y="-129"/>
			<point x="210" y="12"/>
			<point x="210" y="131" type="curve" smooth="yes"/>
		</contour>
	</outline>
</glyph>
<glyph name="acute" format="2">
  <advance width="264"/>
  <unicode hex="00B4"/>
  <outline>
    <contour>
      <point x="54" y="575" type="line"/>
      <point x="171" y="622" type="line" smooth="yes"/>
      <point x="199" y="633.333"/>
      <point x="219.167" y="644.667"/>
      <point x="231.5" y="656" type="curve" smooth="yes"/>
      <point x="243.833" y="667.333"/>
      <point x="250" y="681.667"/>
      <point x="250" y="699" type="curve" smooth="yes"/>
      <point x="250" y="711.667"/>
      <point x="246.333" y="723.5"/>
      <point x="239" y="734.5" type="curve" smooth="yes"/>
      <point x="231.667" y="745.5"/>
      <point x="223.667" y="753.667"/>
      <point x="215" y="759" type="curve"/>
      <point x="30" y="618" type="line"/>
    </contour>
  </outline>
</glyph>
<glyph name="questiondown" format="2">
  <advance width="600"/>
  <unicode hex="00BF"/>
  <outline>
    <contour>
      <point x="399.801" y="731.2" type="curve" smooth="yes"/>
      <point x="399.801" y="690.2"/>
      <point x="367" y="657.399"/>
      <point x="326" y="657.399" type="curve" smooth="yes"/>
      <point x="285" y="657.399"/>
      <point x="252.2" y="690.2"/>
      <point x="252.2" y="731.2" type="curve" smooth="yes"/>
      <point x="252.2" y="772.2"/>
      <point x="285" y="805"/>
      <point x="326" y="805" type="curve" smooth="yes"/>
      <point x="367" y="805"/>
      <point x="399.801" y="772.2"/>
    </contour>
    <contour>
      <point x="190" y="181" type="curve" smooth="yes"/>
      <point x="190" y="122"/>
      <point x="219" y="71"/>
      <point x="294" y="71" type="curve" smooth="yes"/>
      <point x="360.008" y="71"/>
      <point x="424.667" y="159"/>
      <point x="424.667" y="159" type="curve"/>
      <point x="424.667" y="159"/>
      <point x="445.731" y="141.403"/>
      <point x="460.667" y="119" type="curve" smooth="yes"/>
      <point x="472.667" y="101"/>
      <point x="478.667" y="79"/>
      <point x="478.667" y="79" type="curve"/>
      <point x="478.667" y="79"/>
      <point x="402.677" y="-8"/>
      <point x="291" y="-8" type="curve" smooth="yes"/>
      <point x="159" y="-8"/>
      <point x="87" y="67"/>
      <point x="87" y="179" type="curve" smooth="yes"/>
      <point x="87" y="328"/>
      <point x="287" y="391"/>
      <point x="287" y="489" type="curve" smooth="yes"/>
      <point x="286.667" y="555" type="line"/>
      <point x="382" y="555" type="line"/>
      <point x="382" y="555"/>
      <point x="382" y="542.193"/>
      <point x="382" y="449" type="curve" smooth="yes"/>
      <point x="382" y="342"/>
      <point x="190" y="305.663"/>
    </contour>
  </outline>
</glyph>
<glyph name="idotless" format="2">
	<advance width="224"/>
	<unicode hex="0131"/>
	<anchor x="112" y="550" name="top"/>
	<anchor x="112" y="0" name="bottom"/>
	<anchor x="176" y="21" name="ogonek"/>
	<outline>
		<contour>
			<point x="112" y="-2" type="curve" smooth="yes"/>
			<point x="142" y="-2"/>
			<point x="162" y="0"/>
			<point x="162" y="0" type="curve"/>
			<point x="159" y="63"/>
			<point x="157" y="154"/>
			<point x="157" y="273" type="curve" smooth="yes"/>
			<point x="157" y="279" type="line"/>
			<point x="162" y="553" type="line"/>
			<point x="162" y="553"/>
			<point x="142" y="555"/>
			<point x="112" y="555" type="curve" smooth="yes"/>
			<point x="82" y="555"/>
			<point x="62" y="553"/>
			<point x="62" y="553" type="curve"/>
			<point x="65" y="490"/>
			<point x="67" y="398"/>
			<point x="67" y="279" type="curve" smooth="yes"/>
			<point x="67" y="273" type="line"/>
			<point x="62" y="0" type="line"/>
			<point x="62" y="0"/>
			<point x="82" y="-2"/>
		</contour>
	</outline>
</glyph>
<glyph name="tilde" format="2">
	<advance width="420"/>
	<unicode hex="02DC"/>
	<outline>
		<contour>
			<point x="69" y="634" type="curve"/>
			<point x="77" y="658"/>
			<point x="103" y="686"/>
			<point x="139" y="682" type="curve" smooth="yes"/>
			<point x="195" y="676"/>
			<point x="198" y="626"/>
			<point x="269" y="618" type="curve" smooth="yes"/>
			<point x="356" y="609"/>
			<point x="384" y="725"/>
			<point x="384" y="725" type="curve"/>
			<point x="378" y="739"/>
			<point x="365" y="746"/>
			<point x="347" y="749" type="curve"/>
			<point x="339" y="730"/>
			<point x="328" y="700"/>
			<point x="293" y="700" type="curve" smooth="yes"/>
			<point x="236" y="700"/>
			<point x="234" y="756"/>
			<point x="157" y="764" type="curve" smooth="yes"/>
			<point x="66" y="773"/>
			<point x="32" y="658"/>
			<point x="32" y="658" type="curve"/>
			<point x="37" y="643"/>
			<point x="54" y="636"/>
		</contour>
	</outline>
</glyph>
<glyph name="g.alt" format="2">
  <advance width="557"/>
  <outline>
    <contour>
      <point x="282" y="-214" type="curve" smooth="yes"/>
      <point x="372" y="-214"/>
      <point x="436.167" y="-202.333"/>
      <point x="474.5" y="-179" type="curve" smooth="yes"/>
      <point x="512.833" y="-155.667"/>
      <point x="532" y="-117.667"/>
      <point x="532" y="-65" type="curve" smooth="yes"/>
      <point x="532" y="-17.6667"/>
      <point x="519.5" y="15.6667"/>
      <point x="494.5" y="35" type="curve" smooth="yes"/>
      <point x="469.5" y="54.3333"/>
      <point x="425.667" y="64"/>
      <point x="363" y="64" type="curve" smooth="yes"/>
      <point x="282" y="64" type="line" smooth="yes"/>
      <point x="253.333" y="64"/>
      <point x="229.333" y="65.1667"/>
      <point x="210" y="67.5" type="curve" smooth="yes"/>
      <point x="190.667" y="69.8333"/>
      <point x="175.667" y="72.6667"/>
      <point x="165" y="76" type="curve" smooth="yes"/>
      <point x="154.333" y="79.3333"/>
      <point x="146.5" y="84.6667"/>
      <point x="141.5" y="92" type="curve" smooth="yes"/>
      <point x="136.5" y="99.3333"/>
      <point x="133.333" y="106.333"/>
      <point x="132" y="113" type="curve" smooth="yes"/>
      <point x="130.667" y="119.667"/>
      <point x="130" y="128.667"/>
      <point x="130" y="140" type="curve" smooth="yes"/>
      <point x="130" y="154"/>
      <point x="135.667" y="166.5"/>
      <point x="147" y="177.5" type="curve" smooth="yes"/>
      <point x="158.333" y="188.5"/>
      <point x="170.667" y="196"/>
      <point x="184" y="200" type="curve"/>
      <point x="139" y="249" type="line"/>
      <point x="117" y="238.333"/>
      <point x="97" y="221.167"/>
      <point x="79" y="197.5" type="curve" smooth="yes"/>
      <point x="61" y="173.833"/>
      <point x="52" y="147"/>
      <point x="52" y="117" type="curve" smooth="yes"/>
      <point x="52" y="71"/>
      <point x="68.5" y="37.6667"/>
      <point x="101.5" y="17" type="curve" smooth="yes"/>
      <point x="134.5" y="-3.66667"/>
      <point x="177.333" y="-14"/>
      <point x="230" y="-14" type="curve" smooth="yes"/>
      <point x="369" y="-14" type="line" smooth="yes"/>
      <point x="397" y="-14"/>
      <point x="416.167" y="-18.6667"/>
      <point x="426.5" y="-28" type="curve" smooth="yes"/>
      <point x="436.833" y="-37.3333"/>
      <point x="442" y="-52.3333"/>
      <point x="442" y="-73" type="curve" smooth="yes"/>
      <point x="442" y="-101"/>
      <point x="433.167" y="-118.5"/>
      <point x="415.5" y="-125.5" type="curve" smooth="yes"/>
      <point x="397.833" y="-132.5"/>
      <point x="353.333" y="-136"/>
      <point x="282" y="-136" type="curve" smooth="yes"/>
      <point x="249.333" y="-136"/>
      <point x="223.333" y="-135.333"/>
      <point x="204" y="-134" type="curve" smooth="yes"/>
      <point x="184.667" y="-132.667"/>
      <point x="167.833" y="-130.333"/>
      <point x="153.5" y="-127" type="curve" smooth="yes"/>
      <point x="139.167" y="-123.667"/>
      <point x="129" y="-118.167"/>
      <point x="123" y="-110.5" type="curve" smooth="yes"/>
      <point x="117" y="-102.833"/>
      <point x="112.667" y="-94.1667"/>
      <point x="110" y="-84.5" type="curve" smooth="yes"/>
      <point x="107.333" y="-74.8333"/>
      <point x="106" y="-61.3333"/>
      <point x="106" y="-44" type="curve" smooth="yes"/>
      <point x="106" y="-27.3333"/>
      <point x="110" y="-10.3333"/>
      <point x="118" y="7" type="curve" smooth="yes"/>
      <point x="126" y="24.3333"/>
      <point x="135" y="38.3333"/>
      <point x="145" y="49" type="curve"/>
      <point x="113" y="74" type="line"/>
      <point x="91.6667" y="64"/>
      <point x="72.5" y="47.3333"/>
      <point x="55.5" y="24" type="curve" smooth="yes"/>
      <point x="38.5" y="0.666667"/>
      <point x="30" y="-26.3333"/>
      <point x="30" y="-57" type="curve" smooth="yes"/>
      <point x="30" y="-113"/>
      <point x="50.6667" y="-153.167"/>
      <point x="92" y="-177.5" type="curve" smooth="yes"/>
      <point x="133.333" y="-201.833"/>
      <point x="196.667" y="-214"/>
    </contour>
    <contour>
      <point x="272" y="152" type="curve" smooth="yes"/>
      <point x="330" y="152"/>
      <point x="379" y="171.333"/>
      <point x="419" y="210" type="curve" smooth="yes"/>
      <point x="459" y="248.667"/>
      <point x="479" y="298.333"/>
      <point x="479" y="359" type="curve" smooth="yes"/>
      <point x="479" y="419.667"/>
      <point x="459" y="469.333"/>
      <point x="419" y="508" type="curve" smooth="yes"/>
      <point x="379" y="546.667"/>
      <point x="330" y="566"/>
      <point x="272" y="566" type="curve" smooth="yes"/>
      <point x="213.333" y="566"/>
      <point x="164" y="546.667"/>
      <point x="124" y="508" type="curve" smooth="yes"/>
      <point x="84" y="469.333"/>
      <point x="64" y="419.667"/>
      <point x="64" y="359" type="curve" smooth="yes"/>
      <point x="64" y="298.333"/>
      <point x="84" y="248.667"/>
      <point x="124" y="210" type="curve" smooth="yes"/>
      <point x="164" y="171.333"/>
      <point x="213.333" y="152"/>
    </contour>
    <contour>
      <point x="272" y="233" type="curve" smooth="yes"/>
      <point x="232.667" y="233"/>
      <point x="204.833" y="242.833"/>
      <point x="188.5" y="262.5" type="curve" smooth="yes"/>
      <point x="172.167" y="282.167"/>
      <point x="164" y="314.333"/>
      <point x="164" y="359" type="curve" smooth="yes"/>
      <point x="164" y="403.667"/>
      <point x="172.167" y="435.833"/>
      <point x="188.5" y="455.5" type="curve" smooth="yes"/>
      <point x="204.833" y="475.167"/>
      <point x="232.667" y="485"/>
      <point x="272" y="485" type="curve" smooth="yes"/>
      <point x="310.667" y="485"/>
      <point x="338.167" y="475.167"/>
      <point x="354.5" y="455.5" type="curve" smooth="yes"/>
      <point x="370.833" y="435.833"/>
      <point x="379" y="403.667"/>
      <point x="379" y="359" type="curve" smooth="yes"/>
      <point x="379" y="314.333"/>
      <point x="370.833" y="282.167"/>
      <point x="354.5" y="262.5" type="curve" smooth="yes"/>
      <point x="338.167" y="242.833"/>
      <point x="310.667" y="233"/>
    </contour>
    <contour>
      <point x="342" y="480" type="line"/>
      <point x="418.667" y="480"/>
      <point x="467.5" y="483.333"/>
      <point x="488.5" y="490" type="curve" smooth="yes"/>
      <point x="509.5" y="496.667"/>
      <point x="520" y="513.667"/>
      <point x="520" y="541" type="curve" smooth="yes"/>
      <point x="520" y="565.667"/>
      <point x="513.667" y="580.333"/>
      <point x="501" y="585" type="curve"/>
      <point x="484.333" y="573"/>
      <point x="461.5" y="562.167"/>
      <point x="432.5" y="552.5" type="curve" smooth="yes"/>
      <point x="403.5" y="542.833"/>
      <point x="373.333" y="538"/>
      <point x="342" y="538" type="curve"/>
    </contour>
  </outline>
</glyph>
<glyph name="p.001" format="2">
	<advance width="570"/>
	<outline>
		<contour>
			<point x="60" y="-240" type="line"/>
			<point x="72.6667" y="-230.667"/>
			<point x="80.3333" y="-215.833"/>
			<point x="83" y="-195.5" type="curve" smooth="yes"/>
			<point x="85.6667" y="-175.167"/>
			<point x="87" y="-136.667"/>
			<point x="87" y="-80" type="curve" smooth="yes"/>
			<point x="86" y="70" type="line"/>
			<point x="93.3333" y="48.6667"/>
			<point x="111.167" y="29.5"/>
			<point x="139.5" y="12.5" type="curve" smooth="yes"/>
			<point x="167.833" y="-4.5"/>
			<point x="204" y="-13"/>
			<point x="248" y="-13" type="curve" smooth="yes"/>
			<point x="315.333" y="-13"/>
			<point x="366.5" y="14.3333"/>
			<point x="401.5" y="69" type="curve" smooth="yes"/>
			<point x="436.5" y="123.667"/>
			<point x="454" y="195.333"/>
			<point x="454" y="284" type="curve" smooth="yes"/>
			<point x="454" y="376.667"/>
			<point x="433.333" y="446.667"/>
			<point x="392" y="494" type="curve" smooth="yes"/>
			<point x="350.667" y="541.333"/>
			<point x="298.667" y="565"/>
			<point x="236" y="565" type="curve" smooth="yes"/>
			<point x="200.667" y="565.667"/>
			<point x="167.833" y="558"/>
			<point x="137.5" y="542" type="curve" smooth="yes"/>
			<point x="107.167" y="526"/>
			<point x="84.3333" y="508.333"/>
			<point x="69" y="489" type="curve"/>
			<point x="57" y="551" type="line"/>
			<point x="-13" y="551" type="line"/>
			<point x="-4.33333" y="506.333"/>
			<point x="0" y="304"/>
			<point x="0" y="-56" type="curve" smooth="yes"/>
			<point x="0" y="-74.5" type="line"/>
			<point x="0" y="-93.5" type="line"/>
			<point x="0" y="-110" type="line" smooth="yes"/>
			<point x="0" y="-118"/>
			<point x="-0.16667" y="-123.667"/>
			<point x="-0.5" y="-127" type="curve" smooth="yes"/>
			<point x="-2" y="-142" type="line" smooth="yes"/>
			<point x="-2.66667" y="-148.667"/>
			<point x="-3.33333" y="-153.667"/>
			<point x="-4" y="-157" type="curve" smooth="yes"/>
			<point x="-4.66667" y="-160.333"/>
			<point x="-5.66667" y="-164.5"/>
			<point x="-7" y="-169.5" type="curve" smooth="yes"/>
			<point x="-8.33333" y="-174.5"/>
			<point x="-9.83333" y="-179"/>
			<point x="-11.5" y="-183" type="curve" smooth="yes"/>
			<point x="-13.1667" y="-187"/>
			<point x="-15" y="-191"/>
			<point x="-17" y="-195" type="curve"/>
		</contour>
		<contour>
			<point x="224" y="69" type="curve" smooth="yes"/>
			<point x="188.667" y="69"/>
			<point x="156.833" y="86.3333"/>
			<point x="128.5" y="121" type="curve" smooth="yes"/>
			<point x="100.167" y="155.667"/>
			<point x="86" y="208.667"/>
			<point x="86" y="280" type="curve" smooth="yes"/>
			<point x="86" y="340.667"/>
			<point x="98.8333" y="389.667"/>
			<point x="124.5" y="427" type="curve" smooth="yes"/>
			<point x="150.167" y="464.333"/>
			<point x="182.333" y="483"/>
			<point x="221" y="483" type="curve" smooth="yes"/>
			<point x="263" y="483"/>
			<point x="296" y="466"/>
			<point x="320" y="432" type="curve" smooth="yes"/>
			<point x="344" y="398"/>
			<point x="356" y="348"/>
			<point x="356" y="282" type="curve" smooth="yes"/>
			<point x="356" y="140"/>
			<point x="312" y="69"/>
		</contour>
	</outline>
</glyph>
